<?xml version="1.0" encoding="UTF-8" standalone="no"?>
<!-- Generator: Adobe Illustrator 21.0.2, SVG Export Plug-In . SVG Version: 6.00 Build 0)  -->

<svg
   xmlns:dc="http://purl.org/dc/elements/1.1/"
   xmlns:cc="http://creativecommons.org/ns#"
   xmlns:rdf="http://www.w3.org/1999/02/22-rdf-syntax-ns#"
   xmlns:svg="http://www.w3.org/2000/svg"
   xmlns="http://www.w3.org/2000/svg"
   xmlns:sodipodi="http://sodipodi.sourceforge.net/DTD/sodipodi-0.dtd"
   xmlns:inkscape="http://www.inkscape.org/namespaces/inkscape"
   version="1.1"
   id="Calque_1"
   x="0px"
   y="0px"
   viewBox="0 0 48.000001 48.000001"
   xml:space="preserve"
   sodipodi:docname="edit_off.svg"
   width="48"
   height="48"
   inkscape:version="0.92.4 5da689c313, 2019-01-14"><metadata
   id="metadata17"><rdf:RDF><cc:Work
       rdf:about=""><dc:format>image/svg+xml</dc:format><dc:type
         rdf:resource="http://purl.org/dc/dcmitype/StillImage" /><dc:title>boutons</dc:title></cc:Work></rdf:RDF></metadata><defs
   id="defs15" /><sodipodi:namedview
   pagecolor="#ffffff"
   bordercolor="#666666"
   borderopacity="1"
   objecttolerance="10"
   gridtolerance="10"
   guidetolerance="10"
   inkscape:pageopacity="0"
   inkscape:pageshadow="2"
   inkscape:window-width="1920"
   inkscape:window-height="1007"
   id="namedview13"
   showgrid="false"
   inkscape:zoom="16.33218"
   inkscape:cx="8.916958"
   inkscape:cy="23.92739"
   inkscape:window-x="0"
   inkscape:window-y="0"
   inkscape:window-maximized="1"
   inkscape:current-layer="layer1" />
<style
   type="text/css"
   id="style2">
	.st0{display:none;fill:#3D3D3D;}
	.st1{display:none;fill:#000100;}
	.st2{fill:#808080;}
</style>
<title
   id="title4">boutons</title>
<rect
   x="0.5"
   y="19.6"
   class="st0"
   width="27.9"
   height="27.9"
   id="rect6"
   style="display:none;fill:#3d3d3d" />
<path
   class="st1"
   d="M 28.9,48 H 0 V 19.1 H 28.9 Z M 1,47 H 27.9 V 20.1 H 1 Z"
   id="path8"
   inkscape:connector-curvature="0"
   style="display:none;fill:#000100" />

<g
   inkscape:groupmode="layer"
   id="layer1"
   inkscape:label="Icon"
   style="display:inline"
   transform="translate(0,19.1)"><path
     id="path3795"
     inkscape:connector-curvature="0"
     class="st0"
     d="m 19.55,9.6999999 c 0,-0.8999999 0.5,-1.6 1.1,-1.6 0.6,0 1.1,0.8 1.1,1.6 C 21.75,10.5 21.25,11.3 20.65,11.3 c -0.6,0 -1.1,-0.8 -1.1,-1.6000001 m -1,0 C 18.55,11.2 19.55,12.5 20.75,12.5 c 1.2,0 2.2,-1.2 2.2,-2.8000001 0,-1.6 -1.1,-2.8 -2.4,-2.8 -1.3,0 -2,1.3 -2,2.8 m 7.5,0 c 0,-0.9 0.5,-1.6 1.1,-1.6 0.6,0 1.1,0.8 1.1,1.6 C 28.25,10.5 27.75,11.3 27.15,11.3 c -0.5,0 -1.1,-0.8 -1.1,-1.6000001 m -1,0 C 25.05,11.2 26.05,12.5 27.25,12.5 c 1.2,0 2.2,-1.2 2.2,-2.8000001 0,-1.6 -1.1,-2.8 -2.2,-2.8 -1.2,0 -2.2,1.3 -2.2,2.8 m -0.7,-5 c -0.2,0.4 -0.6,0.4 -0.9,0 -0.1,-0.4 -3,-5.9 -3.8,-7.4 -0.1,0.1 -0.4,0.4 -0.3,0.7 0.3,0.5 3.6,9 3.9,9.6 0.2,0.6 0.8,0.6 1,0 0.4,-0.9 3.8,-9.2 3.9,-9.5 0.1,-0.4 0,-0.6 -0.2,-0.8 -0.6,1.4 -3.3,6.9 -3.6,7.4"
     style="display:none;fill:none;stroke:#808080;stroke-opacity:1" /><path
     id="path3795-5"
     inkscape:connector-curvature="0"
     class="st0"
     d="m 27.266525,10.800424 c 0,-0.8999999 0.5,-1.5999999 1.1,-1.5999999 0.6,0 1.1,0.7999999 1.1,1.5999999 0,0.8 -0.5,1.6 -1.1,1.6 -0.6,0 -1.1,-0.8 -1.1,-1.6 m -1,0 c 0,1.5 1,2.8 2.2,2.8 1.2,0 2.2,-1.2 2.2,-2.8 0,-1.5999999 -1.1,-2.7999999 -2.4,-2.7999999 -1.3,0 -2,1.3 -2,2.7999999 m 7.5,0 c 0,-0.8999999 0.5,-1.5999999 1.1,-1.5999999 0.6,0 1.1,0.7999999 1.1,1.5999999 0,0.8 -0.5,1.6 -1.1,1.6 -0.5,0 -1.1,-0.8 -1.1,-1.6 m -1,0 c 0,1.5 1,2.8 2.2,2.8 1.2,0 2.2,-1.2 2.2,-2.8 0,-1.5999999 -1.1,-2.7999999 -2.2,-2.7999999 -1.2,0 -2.2,1.3 -2.2,2.7999999 m -0.7,-4.9999999 c -0.2,0.4 -0.6,0.4 -0.9,0 -0.1,-0.4 -3,-5.89999999 -3.8,-7.4 -0.1,0.1 -0.4,0.4 -0.3,0.70000001 0.3,0.5 3.6,8.99999999 3.9,9.59999999 0.2,0.6 0.8,0.6 1,0 0.4,-0.9 3.8,-9.19999999 3.9,-9.49999999 0.1,-0.40000001 0,-0.60000001 -0.2,-0.80000001 -0.6,1.40000001 -3.3,6.9 -3.6,7.4"
     style="display:none;fill:#3d3d3d" /><path
     id="path3795-3"
     inkscape:connector-curvature="0"
     class="st0"
     d="m 29.103389,21.33178 c 0,-0.9 0.5,-1.6 1.1,-1.6 0.6,0 1.1,0.8 1.1,1.6 0,0.8 -0.5,1.6 -1.1,1.6 -0.6,0 -1.1,-0.8 -1.1,-1.6 m -1,0 c 0,1.5 1,2.8 2.2,2.8 1.2,0 2.2,-1.2 2.2,-2.8 0,-1.6 -1.1,-2.8 -2.4,-2.8 -1.3,0 -2,1.3 -2,2.8 m 7.5,0 c 0,-0.9 0.5,-1.6 1.1,-1.6 0.6,0 1.1,0.8 1.1,1.6 0,0.8 -0.5,1.6 -1.1,1.6 -0.5,0 -1.1,-0.8 -1.1,-1.6 m -1,0 c 0,1.5 1,2.8 2.2,2.8 1.2,0 2.2,-1.2 2.2,-2.8 0,-1.6 -1.1,-2.8 -2.2,-2.8 -1.2,0 -2.2,1.3 -2.2,2.8 m -0.7,-5 c -0.2,0.4 -0.6,0.4 -0.9,0 -0.1,-0.4 -3,-5.9 -3.8,-7.4000001 -0.1,0.1 -0.4,0.4 -0.3,0.7 0.3,0.5000001 3.6,9.0000001 3.9,9.6000001 0.2,0.6 0.8,0.6 1,0 0.4,-0.9 3.8,-9.2 3.9,-9.5000001 0.1,-0.4 0,-0.6 -0.2,-0.8 -0.6,1.4000001 -3.3,6.9000001 -3.6,7.4000001"
     style="display:none;fill:#3d3d3d" /><ellipse
     style="display:inline;opacity:1;vector-effect:none;fill:none;fill-opacity:1;stroke:#f0f0f0;stroke-width:2.42778015;stroke-linecap:square;stroke-linejoin:miter;stroke-miterlimit:4;stroke-dasharray:none;stroke-dashoffset:0;stroke-opacity:1;paint-order:stroke fill markers"
     id="path853-3"
     cx="16.492046"
     cy="16.461962"
     rx="3.7914126"
     ry="4.7241473" /><ellipse
     style="display:inline;opacity:1;vector-effect:none;fill:none;fill-opacity:1;stroke:#f0f0f0;stroke-width:2.42778015;stroke-linecap:square;stroke-linejoin:miter;stroke-miterlimit:4;stroke-dasharray:none;stroke-dashoffset:0;stroke-opacity:1;paint-order:stroke fill markers"
     id="path853-9-6"
     cx="31.507954"
     cy="16.245256"
     rx="3.7914126"
     ry="4.7241473" /><path
     style="display:inline;opacity:1;vector-effect:none;fill:#f0f0f0;fill-opacity:1;stroke:none;stroke-width:2.50265121;stroke-linecap:square;stroke-linejoin:miter;stroke-miterlimit:4;stroke-dasharray:none;stroke-dashoffset:0;stroke-opacity:1;paint-order:stroke fill markers"
     inkscape:transform-center-x="9.7708339"
     d="M 30.691631,-8.3240268 20.929254,13.725009 c -0.20736,0.468319 -1.384751,-0.247007 -1.860066,-0.437783 -0.475316,-0.190773 -0.71785,-0.73264 -0.51361,-1.202327 L 29.289559,-12.6 c 1.328969,0.979336 1.531928,3.8601422 1.402072,4.2759732 z"
     id="rect870-7"
     inkscape:connector-curvature="0"
     sodipodi:nodetypes="cssscc"
     inkscape:transform-center-y="3.8410874" /><path
     style="display:inline;opacity:1;vector-effect:none;fill:#f0f0f0;fill-opacity:1;stroke:none;stroke-width:2.50265121;stroke-linecap:square;stroke-linejoin:miter;stroke-miterlimit:4;stroke-dasharray:none;stroke-dashoffset:0;stroke-opacity:1;paint-order:stroke fill markers"
     inkscape:transform-center-x="-9.7708343"
     d="m 17.30837,-8.3240268 9.762379,22.0490338 c 0.207358,0.468321 1.38475,-0.247006 1.860065,-0.437782 0.475316,-0.190773 0.717851,-0.73264 0.513611,-1.202327 L 18.710442,-12.6 c -1.328968,0.979336 -1.531927,3.8601402 -1.402072,4.2759732 z"
     id="rect870-9-5"
     inkscape:connector-curvature="0"
     sodipodi:nodetypes="cssscc"
     inkscape:transform-center-y="3.8410872" /></g></svg>