<?xml version="1.0" encoding="utf-8"?>
<!-- Created by sK1 2.0rc4 (https://sk1project.net/) -->
<svg xmlns="http://www.w3.org/2000/svg" height="125.0px" width="100.0px" version="1.1" xmlns:xlink="http://www.w3.org/1999/xlink" id="1ad5c284-ccca-11e9-9263-2c56dc395547">

<g>
	<path style="fill:#f6a019;" d="M 69.1,13.2 C 62.2117,13.2906 56.6605,18.8978 56.6605,25.799 56.6605,30.574 59.3181,34.7296 63.2346,36.8668 L 63.0,37.6 C 60.6114,43.0443 55.5178,46.9041 49.4674,47.4946 L 49.0,47.5 C 43.5279,48.0255 38.6634,50.2869 34.8805,53.719 L 34.9,29.8 C 39.9398,28.0753 43.5,23.3785 43.5,17.8518 43.5,10.8942 37.8576,5.2518 30.9,5.2518 23.9424,5.2518 18.3,10.8942 18.3,17.8518 18.3,23.3785 21.8602,28.0753 26.8118,29.7735 L 26.9,70.2 C 21.8864,71.9394 18.35,76.6232 18.35,82.1314 18.35,89.089 23.9924,94.7314 30.95,94.7314 37.9076,94.7314 43.55,89.089 43.55,82.1314 43.55,76.6232 40.0136,71.9394 35.088,70.2269 35.8482,62.4353 42.0111,56.341 49.7342,55.6051 L 50.2,55.6 C 59.2663,54.662 66.7948,48.9001 70.2385,40.9575 L 71.4,38.1 C 77.0948,36.8105 81.2847,31.7916 81.2847,25.7961 81.2847,18.9493 75.8207,13.3762 69.0162,13.2003 L 69.1,13.2 Z M 30.9,13.3 C 33.4401,13.3 35.5,15.3599 35.5,17.9 35.5,20.4401 33.4401,22.5 30.9,22.5 28.3599,22.5 26.3,20.4401 26.3,17.9 26.3,15.3599 28.3599,13.3 30.9,13.3 30.9,13.3 30.9,13.3 30.9,13.3 Z M 30.9,86.7 C 30.9,86.7 30.9,86.7 30.9,86.7 28.3599,86.7 26.3,84.6401 26.3,82.1 26.3,79.5599 28.3599,77.5 30.9,77.5 33.4401,77.5 35.5,79.5599 35.5,82.1 35.5,84.6401 33.4401,86.7 30.9,86.7 Z M 69.1,30.4 C 66.5599,30.4 64.5,28.3401 64.5,25.8 64.5,23.2599 66.5599,21.2 69.1,21.2 71.6401,21.2 73.7,23.2599 73.7,25.8 73.7,28.3401 71.6401,30.4 69.1,30.4 Z" />
</g>
</svg>