<svg xmlns="http://www.w3.org/2000/svg" xmlns:xlink="http://www.w3.org/1999/xlink" version="1.1" x="0px" y="0px" viewBox="0 0 100 125" style="enable-background:new 0 0 100 100;" xml:space="preserve"><path d="M64.3,49.1h-6c0.1,0.5,0.2,0.9,0.2,1.4s-0.1,1-0.2,1.4h6c-0.1-0.5-0.2-0.9-0.2-1.4S64.2,49.6,64.3,49.1z"/><path d="M20,50.5c0,3.3-2.7,6-6,6s-6-2.7-6-6s2.7-6,6-6S20,47.2,20,50.5z M13.9,48.3c-1.3,0-2.3,1-2.3,2.3c0,1.3,1,2.3,2.3,2.3  s2.3-1,2.3-2.3C16.2,49.3,15.2,48.3,13.9,48.3z"/><path d="M38.9,50.5c0,3.3-2.7,6-6,6s-6-2.7-6-6s2.7-6,6-6S38.9,47.2,38.9,50.5z M32.9,48.3c-1.3,0-2.3,1-2.3,2.3  c0,1.3,1,2.3,2.3,2.3c1.3,0,2.3-1,2.3-2.3C35.1,49.3,34.1,48.3,32.9,48.3z"/><path d="M57.8,50.5c0,3.3-2.7,6-6,6s-6-2.7-6-6s2.7-6,6-6S57.8,47.2,57.8,50.5z M51.8,48.3c-1.3,0-2.3,1-2.3,2.3  c0,1.3,1,2.3,2.3,2.3c1.3,0,2.3-1,2.3-2.3C54.1,49.3,53,48.3,51.8,48.3z"/><path d="M76.8,50.5c0,3.3-2.7,6-6,6c-3.3,0-6-2.7-6-6s2.7-6,6-6C74.1,44.5,76.8,47.2,76.8,50.5z M70.7,48.3c-1.3,0-2.3,1-2.3,2.3  c0,1.3,1,2.3,2.3,2.3c1.3,0,2.3-1,2.3-2.3C73,49.3,72,48.3,70.7,48.3z"/><path d="M7.3,50.5c0-0.5,0.1-1,0.2-1.4H1.5v2.8h5.9C7.4,51.5,7.3,51,7.3,50.5z"/><g><path d="M26.4,51.9c-0.1-0.5-0.2-0.9-0.2-1.4s0.1-1,0.2-1.4h-6c0.1,0.5,0.2,0.9,0.2,1.4s-0.1,1-0.2,1.4H26.4z"/><path d="M45.3,49.1h-6c0.1,0.5,0.2,0.9,0.2,1.4s-0.1,1-0.2,1.4h6c-0.1-0.5-0.2-0.9-0.2-1.4S45.2,49.6,45.3,49.1z"/></g><path d="M85.3,42l13.1,7.6c0.7,0.4,0.7,1.4,0,1.8l-13.1,7.6c-0.7,0.4-1.5-0.1-1.5-0.9V42.8C83.8,42.1,84.6,41.6,85.3,42z"/><path d="M77.2,49.1c0.1,0.5,0.2,0.9,0.2,1.4s-0.1,1-0.2,1.4h5.7v-2.8H77.2z"/><text x="0" y="115" fill="#000000" font-size="5px" font-weight="bold" font-family="'Helvetica Neue', Helvetica, Arial-Unicode, Arial, Sans-serif">Created by Joel Olson</text><text x="0" y="120" fill="#000000" font-size="5px" font-weight="bold" font-family="'Helvetica Neue', Helvetica, Arial-Unicode, Arial, Sans-serif">from the Noun Project</text></svg>