<?xml version="1.0" encoding="UTF-8" standalone="no"?>
<svg
   xmlns:dc="http://purl.org/dc/elements/1.1/"
   xmlns:cc="http://creativecommons.org/ns#"
   xmlns:rdf="http://www.w3.org/1999/02/22-rdf-syntax-ns#"
   xmlns:svg="http://www.w3.org/2000/svg"
   xmlns="http://www.w3.org/2000/svg"
   xmlns:sodipodi="http://sodipodi.sourceforge.net/DTD/sodipodi-0.dtd"
   xmlns:inkscape="http://www.inkscape.org/namespaces/inkscape"
   data-name="Layer 1"
   viewBox="0 0 100 125"
   x="0px"
   y="0px"
   version="1.1"
   id="svg12"
   sodipodi:docname="noun_flow_1459073.svg"
   inkscape:version="0.92.4 5da689c313, 2019-01-14">
  <metadata
     id="metadata18">
    <rdf:RDF>
      <cc:Work
         rdf:about="">
        <dc:format>image/svg+xml</dc:format>
        <dc:type
           rdf:resource="http://purl.org/dc/dcmitype/StillImage" />
      </cc:Work>
    </rdf:RDF>
  </metadata>
  <defs
     id="defs16" />
  <sodipodi:namedview
     pagecolor="#ffffff"
     bordercolor="#666666"
     borderopacity="1"
     objecttolerance="10"
     gridtolerance="10"
     guidetolerance="10"
     inkscape:pageopacity="0"
     inkscape:pageshadow="2"
     inkscape:window-width="3836"
     inkscape:window-height="2108"
     id="namedview14"
     showgrid="false"
     inkscape:zoom="1.888"
     inkscape:cx="50"
     inkscape:cy="62.5"
     inkscape:window-x="0"
     inkscape:window-y="18"
     inkscape:window-maximized="0"
     inkscape:current-layer="svg12" />
  <title
     id="title2">74</title>
  <g
     data-name="Group"
     id="g6">
    <path
       data-name="Compound Path"
       d="M69.1,13.2a12.6,12.6,0,0,0-5.8,23.7l-.3.7a16.5,16.5,0,0,1-13.6,9.9H49a24.4,24.4,0,0,0-14.1,6.2V29.8a12.6,12.6,0,1,0-8,0V70.2a12.6,12.6,0,1,0,8.1,0A16.4,16.4,0,0,1,49.8,55.6h.4A24.5,24.5,0,0,0,70.3,40.8l1.1-2.7a12.6,12.6,0,0,0-2.4-24.9Zm-38.2.1a4.6,4.6,0,1,1-4.6,4.6A4.6,4.6,0,0,1,30.9,13.3Zm0,73.4a4.6,4.6,0,1,1,4.6-4.6A4.6,4.6,0,0,1,30.9,86.7ZM69.1,30.4a4.6,4.6,0,1,1,4.6-4.6A4.6,4.6,0,0,1,69.1,30.4Z"
       id="path4" />
  </g>
</svg>
