<?xml version="1.0" standalone="no"?>
<!DOCTYPE svg PUBLIC "-//W3C//DTD SVG 20010904//EN" "http://www.w3.org/TR/2001/REC-SVG-20010904/DTD/svg10.dtd">
<!-- Created using Karbon, part of Calligra: http://www.calligra.org/karbon -->
<svg xmlns="http://www.w3.org/2000/svg" xmlns:xlink="http://www.w3.org/1999/xlink" width="56.693pt" height="56.693pt">
<defs/>
<g id="layer0">
  <g id="group0" transform="translate(46.4049, 39.5964)" fill="none">
   <path id="shape0" transform="translate(-43.9246, -4.34054)" fill="none" stroke="#a6a6a6" stroke-width="4.96063851500" stroke-linecap="butt" stroke-linejoin="bevel" d="M32.7756 16.3879C32.7756 7.33712 25.4386 5.54201e-16 16.3878 0C7.33708 -5.54201e-16 1.1084e-15 7.33712 0 16.3879C-1.1084e-15 25.4387 7.33708 32.7758 16.3878 32.7758C25.4386 32.7758 32.7756 25.4387 32.7756 16.3879"/>
   <path id="shape2" transform="translate(-43.9246, -37.1161)" fill="none" stroke="#a6a6a6" stroke-width="4.96063851500" stroke-linecap="butt" stroke-linejoin="bevel" d="M32.7756 16.3879C32.7756 7.33712 25.4386 5.54201e-16 16.3878 0C7.33708 -5.54201e-16 1.1084e-15 7.33712 0 16.3879C-1.1084e-15 25.4387 7.33708 32.7758 16.3878 32.7758C25.4386 32.7758 32.7756 25.4387 32.7756 16.3879"/>
   <path id="shape4" transform="translate(-11.1489, -4.34054)" fill="none" stroke="#a6a6a6" stroke-width="4.96063851500" stroke-linecap="butt" stroke-linejoin="bevel" d="M32.7756 16.3879C32.7756 7.33712 25.4386 5.54201e-16 16.3878 0C7.33708 -5.54201e-16 1.1084e-15 7.33712 0 16.3879C-1.1084e-15 25.4387 7.33708 32.7758 16.3878 32.7758C25.4386 32.7758 32.7756 25.4387 32.7756 16.3879"/>
   <path id="shape6" transform="translate(-11.1489, -37.1161)" fill="none" stroke="#a6a6a6" stroke-width="4.96063851500" stroke-linecap="butt" stroke-linejoin="bevel" d="M32.7756 16.3879C32.7756 7.33712 25.4386 5.54201e-16 16.3878 0C7.33708 -5.54201e-16 1.1084e-15 7.33712 0 16.3879C-1.1084e-15 25.4387 7.33708 32.7758 16.3878 32.7758C25.4386 32.7758 32.7756 25.4387 32.7756 16.3879"/>
  </g>
 </g>
</svg>
