<?xml version="1.0" encoding="UTF-8" standalone="no"?>
<svg
   xmlns:dc="http://purl.org/dc/elements/1.1/"
   xmlns:cc="http://creativecommons.org/ns#"
   xmlns:rdf="http://www.w3.org/1999/02/22-rdf-syntax-ns#"
   xmlns:svg="http://www.w3.org/2000/svg"
   xmlns="http://www.w3.org/2000/svg"
   xmlns:sodipodi="http://sodipodi.sourceforge.net/DTD/sodipodi-0.dtd"
   xmlns:inkscape="http://www.inkscape.org/namespaces/inkscape"
   version="1.1"
   id="Calque_1"
   x="0px"
   y="0px"
   viewBox="0 0 21.280987 20.311502"
   xml:space="preserve"
   sodipodi:docname="center.svg"
   width="21.280987"
   height="20.311502"
   inkscape:version="1.0.1 (3bc2e813f5, 2020-09-07)"><metadata
   id="metadata17"><rdf:RDF><cc:Work
       rdf:about=""><dc:format>image/svg+xml</dc:format><dc:type
         rdf:resource="http://purl.org/dc/dcmitype/StillImage" /><dc:title>boutons</dc:title></cc:Work></rdf:RDF></metadata><defs
   id="defs15"><clipPath
     clipPathUnits="userSpaceOnUse"
     id="clipPath993"><g
       inkscape:label="Clip"
       id="use995"><g
         id="g1009"
         style="fill:#fce94f"><path
           id="path1005"
           style="fill:#fce94f;fill-opacity:1;stroke:none;stroke-width:1;stroke-linecap:round;stroke-linejoin:round;stroke-miterlimit:4;stroke-dasharray:none;stroke-dashoffset:10;stroke-opacity:1;paint-order:markers fill stroke"
           d="M 4.1587938,6.5392575 H 17.122193 c 0.733607,0 1.3242,0.5905932 1.3242,1.3242001 v 4.5845874 c 0,0.733607 -0.590593,1.3242 -1.3242,1.3242 H 4.1587938 c -0.7336068,0 -1.3242,-0.590593 -1.3242,-1.3242 V 7.8634576 c 0,-0.7336069 0.5905932,-1.3242001 1.3242,-1.3242001 z" /><path
           id="path1007"
           style="fill:#fce94f;fill-opacity:1;stroke:none;stroke-width:1;stroke-linecap:round;stroke-linejoin:round;stroke-miterlimit:4;stroke-dasharray:none;stroke-dashoffset:10;stroke-opacity:1;paint-order:markers fill stroke"
           transform="rotate(-90)"
           d="m -16.637451,7.0239997 h 12.9633994 c 0.7336068,0 1.3242,0.5905932 1.3242,1.3242 v 4.5845873 c 0,0.733607 -0.5905932,1.3242 -1.3242,1.3242 H -16.637451 c -0.733607,0 -1.3242,-0.590593 -1.3242,-1.3242 V 8.3481997 c 0,-0.7336068 0.590593,-1.3242 1.3242,-1.3242 z" /></g></g></clipPath></defs><sodipodi:namedview
   pagecolor="#ffffff"
   bordercolor="#666666"
   borderopacity="1"
   objecttolerance="10"
   gridtolerance="10"
   guidetolerance="10"
   inkscape:pageopacity="0"
   inkscape:pageshadow="2"
   inkscape:window-width="1916"
   inkscape:window-height="2120"
   id="namedview13"
   showgrid="false"
   fit-margin-top="0"
   fit-margin-left="0"
   fit-margin-right="0"
   fit-margin-bottom="0"
   inkscape:zoom="48.587972"
   inkscape:cx="10.640493"
   inkscape:cy="10.155751"
   inkscape:window-x="1920"
   inkscape:window-y="0"
   inkscape:window-maximized="0"
   inkscape:current-layer="Calque_1"
   inkscape:pagecheckerboard="true" />
<style
   type="text/css"
   id="style2">
	.st0{display:none;fill:#F6A019;}
	.st1{fill:none;stroke:#03C3DD;stroke-width:2;stroke-linecap:round;stroke-linejoin:round;stroke-miterlimit:10;}
</style>
<title
   id="title4">boutons</title>
<rect
   style="fill:none;stroke:#03c3dd;stroke-width:2;stroke-linecap:round;stroke-linejoin:round;stroke-miterlimit:4;stroke-dasharray:none;stroke-dashoffset:10;stroke-opacity:1;paint-order:markers fill stroke"
   id="rect848"
   width="19.280987"
   height="18.311502"
   x="1"
   y="1"
   ry="4.89013" /><circle
   class="st0"
   cx="10.640493"
   cy="10.155751"
   r="7"
   id="circle6" />


<path
   id="path999"
   style="color:#000000;font-style:normal;font-variant:normal;font-weight:normal;font-stretch:normal;font-size:medium;line-height:normal;font-family:sans-serif;font-variant-ligatures:normal;font-variant-position:normal;font-variant-caps:normal;font-variant-numeric:normal;font-variant-alternates:normal;font-variant-east-asian:normal;font-feature-settings:normal;font-variation-settings:normal;text-indent:0;text-align:start;text-decoration:none;text-decoration-line:none;text-decoration-style:solid;text-decoration-color:#000000;letter-spacing:normal;word-spacing:normal;text-transform:none;writing-mode:lr-tb;direction:ltr;text-orientation:mixed;dominant-baseline:auto;baseline-shift:baseline;text-anchor:start;white-space:normal;shape-padding:0;shape-margin:0;inline-size:0;clip-rule:nonzero;display:inline;overflow:visible;visibility:visible;isolation:auto;mix-blend-mode:normal;color-interpolation:sRGB;color-interpolation-filters:linearRGB;solid-color:#000000;solid-opacity:1;vector-effect:none;fill:#03c3dd;fill-opacity:1;fill-rule:nonzero;stroke:none;stroke-width:1;stroke-linecap:round;stroke-linejoin:round;stroke-miterlimit:4;stroke-dasharray:none;stroke-dashoffset:10;stroke-opacity:1;paint-order:markers fill stroke;color-rendering:auto;image-rendering:auto;shape-rendering:auto;text-rendering:auto;enable-background:accumulate;stop-color:#000000;stop-opacity:1;opacity:1"
   d="M 6.1328125 4.0488281 C 5.1308539 4.0488281 4.3085938 4.8710883 4.3085938 5.8730469 L 4.3085938 6.5390625 L 5.3085938 6.5390625 L 5.3085938 5.8730469 C 5.3085938 5.407791 5.6675567 5.0488281 6.1328125 5.0488281 L 7.0234375 5.0488281 L 7.0234375 4.0488281 L 6.1328125 4.0488281 z M 14.257812 4.0488281 L 14.257812 5.0488281 L 15.148438 5.0488281 C 15.613691 5.0488281 15.972656 5.4077913 15.972656 5.8730469 L 15.972656 6.5390625 L 16.972656 6.5390625 L 16.972656 5.8730469 C 16.972656 4.8710881 16.150396 4.0488281 15.148438 4.0488281 L 14.257812 4.0488281 z M 4.3085938 13.771484 L 4.3085938 14.4375 C 4.3085938 15.439459 5.1308542 16.261719 6.1328125 16.261719 L 7.0234375 16.261719 L 7.0234375 15.261719 L 6.1328125 15.261719 C 5.6675564 15.261719 5.3085938 14.902757 5.3085938 14.4375 L 5.3085938 13.771484 L 4.3085938 13.771484 z M 15.972656 13.771484 L 15.972656 14.4375 C 15.972656 14.902757 15.613692 15.261719 15.148438 15.261719 L 14.257812 15.261719 L 14.257812 16.261719 L 15.148438 16.261719 C 16.150396 16.261719 16.972656 15.439459 16.972656 14.4375 L 16.972656 13.771484 L 15.972656 13.771484 z " /></svg>
