<?xml version="1.0" encoding="UTF-8" standalone="no"?>
<!-- Generator: Adobe Illustrator 21.0.2, SVG Export Plug-In . SVG Version: 6.00 Build 0)  -->

<svg
   xmlns:dc="http://purl.org/dc/elements/1.1/"
   xmlns:cc="http://creativecommons.org/ns#"
   xmlns:rdf="http://www.w3.org/1999/02/22-rdf-syntax-ns#"
   xmlns:svg="http://www.w3.org/2000/svg"
   xmlns="http://www.w3.org/2000/svg"
   xmlns:sodipodi="http://sodipodi.sourceforge.net/DTD/sodipodi-0.dtd"
   xmlns:inkscape="http://www.inkscape.org/namespaces/inkscape"
   version="1.1"
   id="Calque_1"
   x="0px"
   y="0px"
   viewBox="0 0 48.000001 48.000001"
   xml:space="preserve"
   sodipodi:docname="clip_duration_on.svg"
   width="48"
   height="48"
   inkscape:version="0.92.4 5da689c313, 2019-01-14"><metadata
   id="metadata17"><rdf:RDF><cc:Work
       rdf:about=""><dc:format>image/svg+xml</dc:format><dc:type
         rdf:resource="http://purl.org/dc/dcmitype/StillImage" /><dc:title>boutons</dc:title></cc:Work></rdf:RDF></metadata><defs
   id="defs15" /><sodipodi:namedview
   pagecolor="#ffffff"
   bordercolor="#666666"
   borderopacity="1"
   objecttolerance="10"
   gridtolerance="10"
   guidetolerance="10"
   inkscape:pageopacity="0"
   inkscape:pageshadow="2"
   inkscape:window-width="1920"
   inkscape:window-height="1007"
   id="namedview13"
   showgrid="false"
   inkscape:zoom="8"
   inkscape:cx="31.966107"
   inkscape:cy="6.4123868"
   inkscape:window-x="0"
   inkscape:window-y="0"
   inkscape:window-maximized="1"
   inkscape:current-layer="layer1" />
<style
   type="text/css"
   id="style2">
	.st0{display:none;fill:#3D3D3D;}
	.st1{display:none;fill:#000100;}
	.st2{fill:#808080;}
</style>
<title
   id="title4">boutons</title>
<rect
   x="0.5"
   y="19.6"
   class="st0"
   width="27.9"
   height="27.9"
   id="rect6"
   style="display:none;fill:#3d3d3d" />
<path
   class="st1"
   d="M 28.9,48 H 0 V 19.1 H 28.9 Z M 1,47 H 27.9 V 20.1 H 1 Z"
   id="path8"
   inkscape:connector-curvature="0"
   style="display:none;fill:#000100" />

<g
   inkscape:groupmode="layer"
   id="layer3"
   inkscape:label="Background"
   sodipodi:insensitive="true"><rect
     style="opacity:1;vector-effect:none;fill:#f6a019;fill-opacity:1;stroke:#000000;stroke-width:2;stroke-linecap:square;stroke-linejoin:miter;stroke-miterlimit:4;stroke-dasharray:none;stroke-dashoffset:0;stroke-opacity:1;paint-order:stroke fill markers"
     id="rect823"
     width="46"
     height="46"
     x="1"
     y="1" /></g><g
   inkscape:groupmode="layer"
   id="layer1"
   inkscape:label="Icon"
   style="display:inline"
   transform="translate(0,19.1)"><g
     id="g25"
     transform="matrix(1.3565976,0,0,1.3753352,-8.2191851,-29.633085)"
     style="display:inline;fill:#000000;fill-opacity:1;stroke:none"><path
       style="display:inline;opacity:1;vector-effect:none;fill:#000000;fill-opacity:1;stroke:none;stroke-width:1.41896641;stroke-linecap:square;stroke-linejoin:miter;stroke-miterlimit:4;stroke-dasharray:none;stroke-dashoffset:0;stroke-opacity:1;paint-order:stroke fill markers"
       d="m 17.09375,22 c -1.333778,0 -2.423828,0.866618 -2.423828,2.203125 v 8.884766 c 0,1.336507 1.074425,2.412109 2.408203,2.412109 h 13.947253 c 1.284292,-0.05452 2.304687,-1.098478 2.304687,-2.3848 v -8.910156 c 0,-1.32146 -1.0588,-2.191407 -2.392578,-2.191407 z m 7.226562,2.533203 c 2.230044,0 3.289063,1.79169 3.289063,3.394531 0,1.602843 -0.786313,2.335721 -1.771484,2.886719 -0.956907,0.535192 -2.332342,0.535524 -3.289063,0 -0.984561,-0.551106 -1.769531,-1.283876 -1.769531,-2.886719 0,-1.602841 1.310961,-3.394531 3.541015,-3.394531 z"
       transform="matrix(0.83072279,0,0,0.81940502,3.8126525,5.4431297)"
       id="rect18"
       inkscape:connector-curvature="0"
       sodipodi:nodetypes="cssccssccssccss" /></g><g
     id="g29"
     transform="matrix(1.3565976,0,0,1.3565976,-8.2191851,-28.398101)"
     style="display:inline;fill:#000000;fill-opacity:1;stroke:none"><path
       style="display:inline;opacity:1;vector-effect:none;fill:#000000;fill-opacity:1;stroke:none;stroke-width:1;stroke-linecap:square;stroke-linejoin:miter;stroke-miterlimit:4;stroke-dasharray:none;stroke-dashoffset:0;stroke-opacity:1;paint-order:stroke fill markers"
       d="m 30.208619,21.999924 v -0.591916 c 0,-2.355911 -2.346154,-6.416016 -6.5,-6.416016 -4.153846,0 -6.500782,3.947918 -6.499844,6.416016 l 2.25e-4,0.592067 m 2.499619,0 0.03019,-0.816672 c 0.01114,-1.346189 1.41268,-3.628459 3.96981,-3.691411 2.55713,-0.06295 4,2.328452 4,3.691406 v 0.816527"
       id="path27"
       inkscape:connector-curvature="0"
       sodipodi:nodetypes="czzscczzsc" /></g><path
     style="display:inline;fill:#000000;fill-opacity:1;stroke:none;stroke-width:1.3241694"
     id="path3499"
     inkscape:connector-curvature="0"
     class="st2"
     d="m 8.4,9.7000006 -6,-4.7342461 6,-4.8657539 z" /><path
     style="display:inline;fill:#000000;fill-opacity:1;stroke:none;stroke-width:1.3241694"
     id="path3503"
     inkscape:connector-curvature="0"
     class="st2"
     d="M 39.599999,0.1000006 45.6,4.8342477 39.599999,9.7000006 Z" /><path
     style="display:inline;fill:none;stroke:#000000;stroke-width:2.4000001;stroke-miterlimit:4;stroke-dasharray:none;stroke-opacity:1"
     id="path3519"
     inkscape:connector-curvature="0"
     class="st3"
     d="m 10.8,-10.1 v 30" /><path
     style="display:inline;fill:none;stroke:#000000;stroke-width:2.4000001;stroke-miterlimit:4;stroke-dasharray:none;stroke-opacity:1"
     id="path3523"
     inkscape:connector-curvature="0"
     class="st3"
     d="m 37.199999,-10.1 v 30" /></g></svg>