<?xml version="1.0" encoding="UTF-8" standalone="no"?>
<!-- Generator: Adobe Illustrator 21.0.2, SVG Export Plug-In . SVG Version: 6.00 Build 0)  -->

<svg
   xmlns:dc="http://purl.org/dc/elements/1.1/"
   xmlns:cc="http://creativecommons.org/ns#"
   xmlns:rdf="http://www.w3.org/1999/02/22-rdf-syntax-ns#"
   xmlns:svg="http://www.w3.org/2000/svg"
   xmlns="http://www.w3.org/2000/svg"
   xmlns:sodipodi="http://sodipodi.sourceforge.net/DTD/sodipodi-0.dtd"
   xmlns:inkscape="http://www.inkscape.org/namespaces/inkscape"
   version="1.1"
   id="Calque_1"
   x="0px"
   y="0px"
   viewBox="0 0 48.000001 48.000001"
   xml:space="preserve"
   sodipodi:docname="edit_disabled.svg"
   width="48"
   height="48"
   inkscape:version="0.92.4 5da689c313, 2019-01-14"><metadata
   id="metadata17"><rdf:RDF><cc:Work
       rdf:about=""><dc:format>image/svg+xml</dc:format><dc:type
         rdf:resource="http://purl.org/dc/dcmitype/StillImage" /><dc:title>boutons</dc:title></cc:Work></rdf:RDF></metadata><defs
   id="defs15" /><sodipodi:namedview
   pagecolor="#ffffff"
   bordercolor="#666666"
   borderopacity="1"
   objecttolerance="10"
   gridtolerance="10"
   guidetolerance="10"
   inkscape:pageopacity="0"
   inkscape:pageshadow="2"
   inkscape:window-width="1920"
   inkscape:window-height="1007"
   id="namedview13"
   showgrid="false"
   inkscape:zoom="23.09719"
   inkscape:cx="14.055322"
   inkscape:cy="23.58455"
   inkscape:window-x="0"
   inkscape:window-y="0"
   inkscape:window-maximized="1"
   inkscape:current-layer="layer1" />
<style
   type="text/css"
   id="style2">
	.st0{display:none;fill:#3D3D3D;}
	.st1{display:none;fill:#000100;}
	.st2{fill:#808080;}
</style>
<title
   id="title4">boutons</title>
<rect
   x="0.5"
   y="19.6"
   class="st0"
   width="27.9"
   height="27.9"
   id="rect6"
   style="display:none;fill:#3d3d3d" />
<path
   class="st1"
   d="M 28.9,48 H 0 V 19.1 H 28.9 Z M 1,47 H 27.9 V 20.1 H 1 Z"
   id="path8"
   inkscape:connector-curvature="0"
   style="display:none;fill:#000100" />

<g
   inkscape:groupmode="layer"
   id="layer1"
   inkscape:label="Icon"
   style="display:inline"
   transform="translate(0,19.1)"><path
     id="path3795"
     inkscape:connector-curvature="0"
     class="st0"
     d="m 19.55,9.6999999 c 0,-0.8999999 0.5,-1.6 1.1,-1.6 0.6,0 1.1,0.8 1.1,1.6 C 21.75,10.5 21.25,11.3 20.65,11.3 c -0.6,0 -1.1,-0.8 -1.1,-1.6000001 m -1,0 C 18.55,11.2 19.55,12.5 20.75,12.5 c 1.2,0 2.2,-1.2 2.2,-2.8000001 0,-1.6 -1.1,-2.8 -2.4,-2.8 -1.3,0 -2,1.3 -2,2.8 m 7.5,0 c 0,-0.9 0.5,-1.6 1.1,-1.6 0.6,0 1.1,0.8 1.1,1.6 C 28.25,10.5 27.75,11.3 27.15,11.3 c -0.5,0 -1.1,-0.8 -1.1,-1.6000001 m -1,0 C 25.05,11.2 26.05,12.5 27.25,12.5 c 1.2,0 2.2,-1.2 2.2,-2.8000001 0,-1.6 -1.1,-2.8 -2.2,-2.8 -1.2,0 -2.2,1.3 -2.2,2.8 m -0.7,-5 c -0.2,0.4 -0.6,0.4 -0.9,0 -0.1,-0.4 -3,-5.9 -3.8,-7.4 -0.1,0.1 -0.4,0.4 -0.3,0.7 0.3,0.5 3.6,9 3.9,9.6 0.2,0.6 0.8,0.6 1,0 0.4,-0.9 3.8,-9.2 3.9,-9.5 0.1,-0.4 0,-0.6 -0.2,-0.8 -0.6,1.4 -3.3,6.9 -3.6,7.4"
     style="display:none;fill:none;stroke:#808080;stroke-opacity:1" /><path
     id="path3795-5"
     inkscape:connector-curvature="0"
     class="st0"
     d="m 27.266525,10.800424 c 0,-0.8999999 0.5,-1.5999999 1.1,-1.5999999 0.6,0 1.1,0.7999999 1.1,1.5999999 0,0.8 -0.5,1.6 -1.1,1.6 -0.6,0 -1.1,-0.8 -1.1,-1.6 m -1,0 c 0,1.5 1,2.8 2.2,2.8 1.2,0 2.2,-1.2 2.2,-2.8 0,-1.5999999 -1.1,-2.7999999 -2.4,-2.7999999 -1.3,0 -2,1.3 -2,2.7999999 m 7.5,0 c 0,-0.8999999 0.5,-1.5999999 1.1,-1.5999999 0.6,0 1.1,0.7999999 1.1,1.5999999 0,0.8 -0.5,1.6 -1.1,1.6 -0.5,0 -1.1,-0.8 -1.1,-1.6 m -1,0 c 0,1.5 1,2.8 2.2,2.8 1.2,0 2.2,-1.2 2.2,-2.8 0,-1.5999999 -1.1,-2.7999999 -2.2,-2.7999999 -1.2,0 -2.2,1.3 -2.2,2.7999999 m -0.7,-4.9999999 c -0.2,0.4 -0.6,0.4 -0.9,0 -0.1,-0.4 -3,-5.89999999 -3.8,-7.4 -0.1,0.1 -0.4,0.4 -0.3,0.70000001 0.3,0.5 3.6,8.99999999 3.9,9.59999999 0.2,0.6 0.8,0.6 1,0 0.4,-0.9 3.8,-9.19999999 3.9,-9.49999999 0.1,-0.40000001 0,-0.60000001 -0.2,-0.80000001 -0.6,1.40000001 -3.3,6.9 -3.6,7.4"
     style="display:none;fill:#3d3d3d" /><path
     id="path3795-3"
     inkscape:connector-curvature="0"
     class="st0"
     d="m 29.103389,21.33178 c 0,-0.9 0.5,-1.6 1.1,-1.6 0.6,0 1.1,0.8 1.1,1.6 0,0.8 -0.5,1.6 -1.1,1.6 -0.6,0 -1.1,-0.8 -1.1,-1.6 m -1,0 c 0,1.5 1,2.8 2.2,2.8 1.2,0 2.2,-1.2 2.2,-2.8 0,-1.6 -1.1,-2.8 -2.4,-2.8 -1.3,0 -2,1.3 -2,2.8 m 7.5,0 c 0,-0.9 0.5,-1.6 1.1,-1.6 0.6,0 1.1,0.8 1.1,1.6 0,0.8 -0.5,1.6 -1.1,1.6 -0.5,0 -1.1,-0.8 -1.1,-1.6 m -1,0 c 0,1.5 1,2.8 2.2,2.8 1.2,0 2.2,-1.2 2.2,-2.8 0,-1.6 -1.1,-2.8 -2.2,-2.8 -1.2,0 -2.2,1.3 -2.2,2.8 m -0.7,-5 c -0.2,0.4 -0.6,0.4 -0.9,0 -0.1,-0.4 -3,-5.9 -3.8,-7.4000001 -0.1,0.1 -0.4,0.4 -0.3,0.7 0.3,0.5000001 3.6,9.0000001 3.9,9.6000001 0.2,0.6 0.8,0.6 1,0 0.4,-0.9 3.8,-9.2 3.9,-9.5000001 0.1,-0.4 0,-0.6 -0.2,-0.8 -0.6,1.4000001 -3.3,6.9000001 -3.6,7.4000001"
     style="display:none;fill:#3d3d3d" /><ellipse
     style="display:inline;opacity:1;vector-effect:none;fill:none;fill-opacity:1;stroke:#808080;stroke-width:2.42777991;stroke-linecap:square;stroke-linejoin:miter;stroke-miterlimit:4;stroke-dasharray:none;stroke-dashoffset:0;stroke-opacity:1;paint-order:stroke fill markers"
     id="path853-3"
     cx="16.492046"
     cy="16.461962"
     rx="3.7914126"
     ry="4.7241473" /><ellipse
     style="display:inline;opacity:1;vector-effect:none;fill:none;fill-opacity:1;stroke:#808080;stroke-width:2.42777991;stroke-linecap:square;stroke-linejoin:miter;stroke-miterlimit:4;stroke-dasharray:none;stroke-dashoffset:0;stroke-opacity:1;paint-order:stroke fill markers"
     id="path853-9-6"
     cx="31.507954"
     cy="16.245256"
     rx="3.7914126"
     ry="4.7241473" /><g
     id="g854"
     transform="matrix(1.2513256,0,0,1.2513256,-6.3388895,-1.2314956)"><path
       sodipodi:nodetypes="cssscc"
       inkscape:connector-curvature="0"
       id="rect870-7"
       d="M 29.593033,-5.6680136 21.791405,11.952528 c -0.165712,0.374259 -1.106627,-0.197396 -1.486476,-0.349855 -0.37985,-0.152457 -0.573672,-0.585491 -0.410453,-0.960843 l 8.578088,-19.7269986 c 1.062049,0.782639 1.224244,3.084842 1.120469,3.417155 z"
       inkscape:transform-center-y="3.0696144"
       inkscape:transform-center-x="7.8083863"
       style="display:inline;opacity:1;vector-effect:none;fill:#808080;fill-opacity:1;stroke:none;stroke-width:2;stroke-linecap:square;stroke-linejoin:miter;stroke-miterlimit:4;stroke-dasharray:none;stroke-dashoffset:0;stroke-opacity:1;paint-order:stroke fill markers" /><path
       sodipodi:nodetypes="cssscc"
       inkscape:connector-curvature="0"
       id="rect870-9-5"
       d="m 18.897767,-5.6680136 7.801629,17.6205406 c 0.165711,0.37426 1.106627,-0.197396 1.486476,-0.349855 0.37985,-0.152457 0.573672,-0.585491 0.410453,-0.960843 L 20.018236,-9.0851686 c -1.062048,0.782639 -1.224243,3.084841 -1.120469,3.417155 z"
       inkscape:transform-center-y="3.0696144"
       inkscape:transform-center-x="-7.8083864"
       style="display:inline;opacity:1;vector-effect:none;fill:#808080;fill-opacity:1;stroke:none;stroke-width:2;stroke-linecap:square;stroke-linejoin:miter;stroke-miterlimit:4;stroke-dasharray:none;stroke-dashoffset:0;stroke-opacity:1;paint-order:stroke fill markers" /></g></g></svg>