<?xml version="1.0" encoding="UTF-8" standalone="no"?>
<!-- Generator: Adobe Illustrator 21.0.2, SVG Export Plug-In . SVG Version: 6.00 Build 0)  -->

<svg
   xmlns:dc="http://purl.org/dc/elements/1.1/"
   xmlns:cc="http://creativecommons.org/ns#"
   xmlns:rdf="http://www.w3.org/1999/02/22-rdf-syntax-ns#"
   xmlns:svg="http://www.w3.org/2000/svg"
   xmlns="http://www.w3.org/2000/svg"
   xmlns:sodipodi="http://sodipodi.sourceforge.net/DTD/sodipodi-0.dtd"
   xmlns:inkscape="http://www.inkscape.org/namespaces/inkscape"
   version="1.1"
   id="Calque_1"
   x="0px"
   y="0px"
   viewBox="0 0 48.000001 48.000001"
   xml:space="preserve"
   sodipodi:docname="nodal_on.svg"
   width="48"
   height="48"
   inkscape:version="0.92.4 5da689c313, 2019-01-14"><metadata
   id="metadata17"><rdf:RDF><cc:Work
       rdf:about=""><dc:format>image/svg+xml</dc:format><dc:type
         rdf:resource="http://purl.org/dc/dcmitype/StillImage" /><dc:title>boutons</dc:title></cc:Work></rdf:RDF></metadata><defs
   id="defs15" /><sodipodi:namedview
   pagecolor="#ffffff"
   bordercolor="#666666"
   borderopacity="1"
   objecttolerance="10"
   gridtolerance="10"
   guidetolerance="10"
   inkscape:pageopacity="0"
   inkscape:pageshadow="2"
   inkscape:window-width="1920"
   inkscape:window-height="1007"
   id="namedview13"
   showgrid="false"
   inkscape:zoom="8.1660901"
   inkscape:cx="18.980932"
   inkscape:cy="20.69534"
   inkscape:window-x="0"
   inkscape:window-y="0"
   inkscape:window-maximized="1"
   inkscape:current-layer="layer1" />
<style
   type="text/css"
   id="style2">
	.st0{display:none;fill:#3D3D3D;}
	.st1{display:none;fill:#000100;}
	.st2{fill:#808080;}
</style>
<title
   id="title4">boutons</title>
<rect
   x="0.5"
   y="19.6"
   class="st0"
   width="27.9"
   height="27.9"
   id="rect6"
   style="display:none;fill:#3d3d3d" />
<path
   class="st1"
   d="M 28.9,48 H 0 V 19.1 H 28.9 Z M 1,47 H 27.9 V 20.1 H 1 Z"
   id="path8"
   inkscape:connector-curvature="0"
   style="display:none;fill:#000100" />

<g
   inkscape:groupmode="layer"
   id="layer3"
   inkscape:label="Background"
   sodipodi:insensitive="true"><rect
     style="opacity:1;vector-effect:none;fill:#f6a019;fill-opacity:1;stroke:#000000;stroke-width:2;stroke-linecap:square;stroke-linejoin:miter;stroke-miterlimit:4;stroke-dasharray:none;stroke-dashoffset:0;stroke-opacity:1;paint-order:stroke fill markers"
     id="rect823"
     width="46"
     height="46"
     x="1"
     y="1" /></g><g
   inkscape:groupmode="layer"
   id="layer1"
   inkscape:label="Icon"
   style="display:inline"
   transform="translate(0,19.1)"><path
     inkscape:connector-curvature="0"
     style="display:inline;fill:#000000;fill-opacity:1;stroke-width:0.44702929"
     d="m 32.631096,-11.54694 c -3.079272,0.0405 -5.560821,2.547084 -5.560821,5.6321227 0,2.134565 1.188025,3.99224 2.938815,4.9476313 l -0.104875,0.3277612 c -1.067774,2.4337613 -3.344763,4.1592051 -6.049469,4.4231763 l -0.208941,0.00237 c -2.446189,0.234915 -4.620763,1.2458275 -6.31183,2.7800762 l 0.0087,-10.6924937 c 2.252945,-0.7709363 3.844458,-2.870544 3.844458,-5.34114 0,-3.110252 -2.522317,-5.632569 -5.632568,-5.632569 -3.110251,0 -5.632569,2.522317 -5.632569,5.632569 0,2.470596 1.591514,4.5702037 3.805024,5.3293487 l 0.03943,18.0718303 c -2.241227,0.777562 -3.8221,2.871357 -3.8221,5.333683 0,3.11025 2.522317,5.632569 5.632568,5.632569 3.110252,0 5.632569,-2.522319 5.632569,-5.632569 0,-2.462326 -1.580874,-4.556121 -3.782762,-5.321658 0.339832,-3.483074 3.094828,-6.207404 6.547281,-6.5363728 l 0.208226,-0.00225 C 28.235133,6.987844 31.600595,4.4121065 33.140029,0.8615315 l 0.519224,-1.2773863 c 2.545743,-0.5764437 4.418751,-2.8200391 4.418751,-5.5002037 0,-3.0607205 -2.442568,-5.5520595 -5.484379,-5.6306915 z M 15.554577,21.309715 v 0 c -1.135498,0 -2.056335,-0.920838 -2.056335,-2.056336 0,-1.1355 0.920837,-2.056335 2.056335,-2.056335 1.135499,0 2.056335,0.920835 2.056335,2.056335 0,1.135498 -0.920836,2.056336 -2.056335,2.056336 z"
     id="path2"
     sodipodi:nodetypes="csccccccsssccssscccccsccccsssc" /></g></svg>