<?xml version="1.0" encoding="UTF-8" standalone="no"?>
<!-- Generator: Adobe Illustrator 21.0.2, SVG Export Plug-In . SVG Version: 6.00 Build 0)  -->

<svg
   xmlns:dc="http://purl.org/dc/elements/1.1/"
   xmlns:cc="http://creativecommons.org/ns#"
   xmlns:rdf="http://www.w3.org/1999/02/22-rdf-syntax-ns#"
   xmlns:svg="http://www.w3.org/2000/svg"
   xmlns="http://www.w3.org/2000/svg"
   xmlns:sodipodi="http://sodipodi.sourceforge.net/DTD/sodipodi-0.dtd"
   xmlns:inkscape="http://www.inkscape.org/namespaces/inkscape"
   version="1.1"
   id="Calque_1"
   x="0px"
   y="0px"
   viewBox="0 0 48.000001 48.000001"
   xml:space="preserve"
   sodipodi:docname="refresh_off.svg"
   width="48"
   height="48"
   inkscape:version="0.92.4 5da689c313, 2019-01-14"><metadata
   id="metadata17"><rdf:RDF><cc:Work
       rdf:about=""><dc:format>image/svg+xml</dc:format><dc:type
         rdf:resource="http://purl.org/dc/dcmitype/StillImage" /><dc:title>boutons</dc:title></cc:Work></rdf:RDF></metadata><defs
   id="defs15" /><sodipodi:namedview
   pagecolor="#ffffff"
   bordercolor="#666666"
   borderopacity="1"
   objecttolerance="10"
   gridtolerance="10"
   guidetolerance="10"
   inkscape:pageopacity="0"
   inkscape:pageshadow="2"
   inkscape:window-width="1920"
   inkscape:window-height="1007"
   id="namedview13"
   showgrid="false"
   inkscape:zoom="8.1660901"
   inkscape:cx="6.2356897"
   inkscape:cy="8.5902084"
   inkscape:window-x="0"
   inkscape:window-y="0"
   inkscape:window-maximized="1"
   inkscape:current-layer="layer1" />
<style
   type="text/css"
   id="style2">
	.st0{display:none;fill:#3D3D3D;}
	.st1{display:none;fill:#000100;}
	.st2{fill:#808080;}
</style>
<title
   id="title4">boutons</title>
<rect
   x="0.5"
   y="19.6"
   class="st0"
   width="27.9"
   height="27.9"
   id="rect6"
   style="display:none;fill:#3d3d3d" />
<path
   class="st1"
   d="M 28.9,48 H 0 V 19.1 H 28.9 Z M 1,47 H 27.9 V 20.1 H 1 Z"
   id="path8"
   inkscape:connector-curvature="0"
   style="display:none;fill:#000100" />

<g
   inkscape:groupmode="layer"
   id="layer1"
   inkscape:label="Icon"
   style="display:inline"
   transform="translate(0,19.1)"><path
     inkscape:connector-curvature="0"
     class="st2"
     d="M 9.972606,-1.9417012 C 13.756193,-9.8889484 23.25835,-13.257889 31.205608,-9.4915854 39.152867,-5.725282 42.521813,3.7941373 38.755504,11.741385 34.989194,19.688632 25.469762,23.057572 17.522502,19.291269 16.416797,18.755693 15.362921,18.116459 14.412705,17.33901"
     id="path10"
     style="fill:none;stroke:#f0f0f0;stroke-width:2.41408706;stroke-miterlimit:4;stroke-dasharray:none;stroke-opacity:1" /><polygon
     transform="matrix(0.17276649,0,0,0.17276622,-1.8964512,-21.153305)"
     class="st3"
     points="48.6,94 100.6,114 57.3,148.9 "
     id="polygon12"
     style="fill:#f0f0f0;fill-opacity:1" /><path
     inkscape:connector-curvature="0"
     id="path3667"
     class="st3"
     d="m 21.581114,6.0806442 c 0,1.3438252 1.094257,2.4380807 2.438085,2.4380807 1.343825,0 2.438084,-1.0942555 2.438084,-2.4380807 0,-1.3438237 -1.094259,-2.4380805 -2.438084,-2.4380805 v 0 c -1.343828,0 -2.438085,1.0942568 -2.438085,2.4380805 m -2.418887,0.0384 c 0,-2.6684489 2.150123,-4.8185679 4.799379,-4.8185679 2.668454,0 4.818574,2.150119 4.818574,4.7993706 0,2.6684517 -2.15012,4.8185691 -4.799377,4.8185691 0,0 0,0 -0.01919,0 -2.649258,0.01919 -4.79938,-2.1501172 -4.79938,-4.7993716 m 1.938949,-8.5044845 c -1.055863,0 -1.919751,0.8638871 -1.919751,1.91974802 0,0 0,0 0,0.019193 v 0.4991339 h -2.687656 c -1.190245,0 -2.150121,0.9022815 -2.150121,2.03493288 v 8.0629433 c 0,1.113455 0.959876,2.034935 2.150121,2.034935 h 15.012456 c 1.190245,0 2.15012,-0.902283 2.15012,-2.034935 V 2.0875676 c 0,-1.11345408 -0.959875,-2.03493288 -2.15012,-2.03493288 h -2.687653 v -0.4991338 c 0,-1.05586222 -0.84469,-1.91974942 -1.900554,-1.93894672 h -0.01919 z"
     style="fill:#f0f0f0;fill-opacity:1;stroke:none;stroke-width:0.19197483" /></g></svg>