<?xml version="1.0" encoding="UTF-8" standalone="no"?>
<!-- Generator: Adobe Illustrator 21.0.2, SVG Export Plug-In . SVG Version: 6.00 Build 0)  -->

<svg
   xmlns:dc="http://purl.org/dc/elements/1.1/"
   xmlns:cc="http://creativecommons.org/ns#"
   xmlns:rdf="http://www.w3.org/1999/02/22-rdf-syntax-ns#"
   xmlns:svg="http://www.w3.org/2000/svg"
   xmlns="http://www.w3.org/2000/svg"
   xmlns:sodipodi="http://sodipodi.sourceforge.net/DTD/sodipodi-0.dtd"
   xmlns:inkscape="http://www.inkscape.org/namespaces/inkscape"
   version="1.1"
   id="Calque_1"
   x="0px"
   y="0px"
   viewBox="0 0 48.000001 48.000001"
   xml:space="preserve"
   sodipodi:docname="scale_off.svg"
   width="48"
   height="48"
   inkscape:version="0.92.4 5da689c313, 2019-01-14"><metadata
   id="metadata17"><rdf:RDF><cc:Work
       rdf:about=""><dc:format>image/svg+xml</dc:format><dc:type
         rdf:resource="http://purl.org/dc/dcmitype/StillImage" /><dc:title>boutons</dc:title></cc:Work></rdf:RDF></metadata><defs
   id="defs15" /><sodipodi:namedview
   pagecolor="#ffffff"
   bordercolor="#666666"
   borderopacity="1"
   objecttolerance="10"
   gridtolerance="10"
   guidetolerance="10"
   inkscape:pageopacity="0"
   inkscape:pageshadow="2"
   inkscape:window-width="1920"
   inkscape:window-height="1007"
   id="namedview13"
   showgrid="false"
   inkscape:zoom="11.548595"
   inkscape:cx="13.234602"
   inkscape:cy="24.832016"
   inkscape:window-x="0"
   inkscape:window-y="0"
   inkscape:window-maximized="1"
   inkscape:current-layer="layer1" />
<style
   type="text/css"
   id="style2">
	.st0{display:none;fill:#3D3D3D;}
	.st1{display:none;fill:#000100;}
	.st2{fill:#808080;}
</style>
<title
   id="title4">boutons</title>
<rect
   x="0.5"
   y="19.6"
   class="st0"
   width="27.9"
   height="27.9"
   id="rect6"
   style="display:none;fill:#3d3d3d" />
<path
   class="st1"
   d="M 28.9,48 H 0 V 19.1 H 28.9 Z M 1,47 H 27.9 V 20.1 H 1 Z"
   id="path8"
   inkscape:connector-curvature="0"
   style="display:none;fill:#000100" />

<g
   inkscape:groupmode="layer"
   id="layer1"
   inkscape:label="Icon"
   style="display:inline"
   transform="translate(0,19.1)"><path
     inkscape:connector-curvature="0"
     class="st2"
     d="M 8.9704127,14.959171 H 39.029585 V -5.1591724 H 8.9704127 Z m 0,-20.1183434 2.3671873,2.60355 H 36.662721 V 12.35562 H 11.337277 V -2.5556224 Z"
     id="path10-3"
     style="fill:#f0f0f0;fill-opacity:1;stroke:none;stroke-width:2.36686397"
     sodipodi:nodetypes="cccccccccccc" /><polygon
     transform="matrix(2.3668639,0,0,2.3668639,-10.201183,-29.301183)"
     class="st2"
     points="22.9,11.2 22.9,8.1 19.7,8.1 19.7,9.2 21.8,9.2 21.8,11.2 "
     id="polygon12"
     style="fill:#f0f0f0;fill-opacity:1;stroke:none" /><polygon
     transform="matrix(2.3668639,0,0,2.3668639,-10.201183,-29.301183)"
     class="st2"
     points="9.1,9.2 9.1,8.1 6,8.1 6,11.2 7,11.2 7,9.2 "
     id="polygon14"
     style="fill:#f0f0f0;fill-opacity:1;stroke:none" /><polygon
     transform="matrix(2.3668639,0,0,2.3668639,-10.201183,-29.301183)"
     class="st2"
     points="22.9,20.8 22.9,17.6 21.8,17.6 21.8,19.7 19.7,19.7 19.7,20.8 "
     id="polygon16"
     style="fill:#f0f0f0;fill-opacity:1;stroke:none" /><polygon
     transform="matrix(2.3668639,0,0,2.3668639,-10.201183,-29.301183)"
     class="st2"
     points="7,19.7 7,17.6 6,17.6 6,20.8 9.1,20.8 9.1,19.7 "
     id="polygon18"
     style="fill:#f0f0f0;fill-opacity:1;stroke:none" /></g></svg>