<?xml version="1.0" encoding="UTF-8" standalone="no"?>
<!-- Generator: Adobe Illustrator 21.0.2, SVG Export Plug-In . SVG Version: 6.00 Build 0)  -->

<svg
   xmlns:dc="http://purl.org/dc/elements/1.1/"
   xmlns:cc="http://creativecommons.org/ns#"
   xmlns:rdf="http://www.w3.org/1999/02/22-rdf-syntax-ns#"
   xmlns:svg="http://www.w3.org/2000/svg"
   xmlns="http://www.w3.org/2000/svg"
   xmlns:sodipodi="http://sodipodi.sourceforge.net/DTD/sodipodi-0.dtd"
   xmlns:inkscape="http://www.inkscape.org/namespaces/inkscape"
   version="1.1"
   id="Calque_1"
   x="0px"
   y="0px"
   viewBox="0 0 48.000001 48.000001"
   xml:space="preserve"
   sodipodi:docname="snapshot_off.svg"
   width="48"
   height="48"
   inkscape:version="0.92.4 5da689c313, 2019-01-14"><metadata
   id="metadata17"><rdf:RDF><cc:Work
       rdf:about=""><dc:format>image/svg+xml</dc:format><dc:type
         rdf:resource="http://purl.org/dc/dcmitype/StillImage" /><dc:title>boutons</dc:title></cc:Work></rdf:RDF></metadata><defs
   id="defs15" /><sodipodi:namedview
   pagecolor="#ffffff"
   bordercolor="#666666"
   borderopacity="1"
   objecttolerance="10"
   gridtolerance="10"
   guidetolerance="10"
   inkscape:pageopacity="0"
   inkscape:pageshadow="2"
   inkscape:window-width="1920"
   inkscape:window-height="1007"
   id="namedview13"
   showgrid="false"
   inkscape:zoom="8.1660901"
   inkscape:cx="2.1430085"
   inkscape:cy="17.388984"
   inkscape:window-x="0"
   inkscape:window-y="0"
   inkscape:window-maximized="1"
   inkscape:current-layer="layer1" />
<style
   type="text/css"
   id="style2">
	.st0{display:none;fill:#3D3D3D;}
	.st1{display:none;fill:#000100;}
	.st2{fill:#808080;}
</style>
<title
   id="title4">boutons</title>
<rect
   x="0.5"
   y="19.6"
   class="st0"
   width="27.9"
   height="27.9"
   id="rect6"
   style="display:none;fill:#3d3d3d" />
<path
   class="st1"
   d="M 28.9,48 H 0 V 19.1 H 28.9 Z M 1,47 H 27.9 V 20.1 H 1 Z"
   id="path8"
   inkscape:connector-curvature="0"
   style="display:none;fill:#000100" />

<g
   inkscape:groupmode="layer"
   id="layer1"
   inkscape:label="Icon"
   style="display:inline"
   transform="translate(0,19.1)"><path
     inkscape:connector-curvature="0"
     id="path3667"
     class="st3"
     d="m 19.616302,7.0396567 c 0,2.4353854 1.9831,4.4184833 4.418492,4.4184833 2.435386,0 4.418488,-1.9830979 4.418488,-4.4184833 0,-2.4353831 -1.983102,-4.4184831 -4.418488,-4.4184831 v 0 c -2.435392,0 -4.418492,1.9831 -4.418492,4.4184831 m -4.383697,0.069584 c 0,-4.8359741 3.896623,-8.732592 8.697815,-8.732592 4.835982,0 8.732601,3.8966182 8.732601,8.6977997 0,4.8359806 -3.896619,8.7325936 -8.697811,8.7325936 0,0 0,0 -0.03478,0 -4.801201,0.03478 -8.697822,-3.896613 -8.697822,-8.6978011 m 3.513916,-15.4125014 c -1.913517,0 -3.479125,1.565605 -3.479125,3.4791203 0,0 0,0 0,0.034782 v 0.9045706 H 10.39662 C 8.239563,-3.8847794 6.5,-2.2495947 6.5,-0.1969127 V 14.415392 c 0,2.01789 1.739563,3.68787 3.89662,3.68787 h 27.206763 c 2.157055,0 3.896617,-1.63519 3.896617,-3.68787 V -0.1969127 c 0,-2.0178899 -1.739562,-3.6878667 -3.896617,-3.6878667 H 32.732605 V -4.78935 c 0,-1.9135175 -1.530815,-3.4791225 -3.444335,-3.5139125 h -0.03478 z"
     style="display:inline;fill:#f0f0f0;fill-opacity:1;stroke:none;stroke-width:0.34791201" /></g></svg>