<?xml version="1.0" encoding="UTF-8" standalone="no"?>
<!-- Created with Inkscape (http://www.inkscape.org/) -->

<svg
   xmlns:dc="http://purl.org/dc/elements/1.1/"
   xmlns:cc="http://creativecommons.org/ns#"
   xmlns:rdf="http://www.w3.org/1999/02/22-rdf-syntax-ns#"
   xmlns:svg="http://www.w3.org/2000/svg"
   xmlns="http://www.w3.org/2000/svg"
   xmlns:sodipodi="http://sodipodi.sourceforge.net/DTD/sodipodi-0.dtd"
   xmlns:inkscape="http://www.inkscape.org/namespaces/inkscape"
   width="7.6358747mm"
   height="7.6358747mm"
   viewBox="0 0 7.6358747 7.6358747"
   version="1.1"
   id="svg8"
   inkscape:version="0.92.4 5da689c313, 2019-01-14"
   sodipodi:docname="nodal_on.svg"
   inkscape:export-filename="/home/alevy/graphisme/score_icons/nodal_on@2x.png"
   inkscape:export-xdpi="319.32999"
   inkscape:export-ydpi="319.32999">
  <defs
     id="defs2">
    <style
       id="style124">.cls-1{fill:#f6a019;}.cls-2{fill:#000100;}.cls-3{fill:#1d1d1b;}</style>
  </defs>
  <sodipodi:namedview
     id="base"
     pagecolor="#ffffff"
     bordercolor="#666666"
     borderopacity="1.0"
     inkscape:pageopacity="0.0"
     inkscape:pageshadow="2"
     inkscape:zoom="11.2"
     inkscape:cx="2.8678224"
     inkscape:cy="16.484033"
     inkscape:document-units="mm"
     inkscape:current-layer="g1148"
     showgrid="false"
     inkscape:window-width="1920"
     inkscape:window-height="1015"
     inkscape:window-x="0"
     inkscape:window-y="0"
     inkscape:window-maximized="1" />
  <metadata
     id="metadata5">
    <rdf:RDF>
      <cc:Work
         rdf:about="">
        <dc:format>image/svg+xml</dc:format>
        <dc:type
           rdf:resource="http://purl.org/dc/dcmitype/StillImage" />
        <dc:title></dc:title>
      </cc:Work>
    </rdf:RDF>
  </metadata>
  <g
     inkscape:label="Calque 1"
     inkscape:groupmode="layer"
     id="layer1"
     style="display:inline"
     transform="translate(-70.832,-80.368701)">
    <g
       transform="matrix(0.26458333,0,0,0.26458333,93.009062,62.297582)"
       style="display:inline"
       inkscape:label="on"
       id="g1152">
      <g
         transform="matrix(3.7795276,0,0,3.7795276,-351.53032,-235.45543)"
         style="display:inline"
         inkscape:label="bg"
         id="g1138"
         inkscape:groupmode="layer">
        <g
           transform="matrix(0.26458333,0,0,0.26458333,56.374771,86.132838)"
           id="g1136">
          <g
             transform="translate(54.642858,-21.785715)"
             id="g1134">
            <rect
               id="rect1130"
               height="27.860001"
               width="27.860001"
               y="0.5"
               x="0.5"
               class="cls-1"
               style="fill:#f6a019" />
            <path
               id="path1132"
               d="M 28.86,28.86 H 0 V 0 H 28.86 Z M 1,27.86 H 27.86 V 1 H 1 Z"
               class="cls-2"
               inkscape:connector-curvature="0"
               style="fill:#000100" />
          </g>
        </g>
      </g>
      <g
         style="display:inline;opacity:1"
         inkscape:label="icon"
         id="g1150"
         inkscape:groupmode="layer">
        <g
           transform="translate(-104.32236,13.196909)"
           id="g1148">
          <path
             style="opacity:1;vector-effect:none;fill:#000000;fill-opacity:1;stroke:none;stroke-width:1.37230396;stroke-linecap:round;stroke-linejoin:round;stroke-miterlimit:4;stroke-dasharray:none;stroke-dashoffset:0;stroke-opacity:1;paint-order:stroke fill markers"
             d="M 34.821829,61.58861 A 3.0000007,3.0000007 0 0 1 31.82183,64.588611 3.0000007,3.0000007 0 0 1 28.821829,61.58861 3.0000007,3.0000007 0 0 1 31.82183,58.588609 3.0000007,3.0000007 0 0 1 34.821829,61.58861 Z"
             id="circle1140"
             inkscape:connector-curvature="0" />
          <path
             style="color:#000000;font-style:normal;font-variant:normal;font-weight:normal;font-stretch:normal;font-size:medium;line-height:normal;font-family:sans-serif;font-variant-ligatures:normal;font-variant-position:normal;font-variant-caps:normal;font-variant-numeric:normal;font-variant-alternates:normal;font-feature-settings:normal;text-indent:0;text-align:start;text-decoration:none;text-decoration-line:none;text-decoration-style:solid;text-decoration-color:#000000;letter-spacing:normal;word-spacing:normal;text-transform:none;writing-mode:lr-tb;direction:ltr;text-orientation:mixed;dominant-baseline:auto;baseline-shift:baseline;text-anchor:start;white-space:normal;shape-padding:0;clip-rule:nonzero;display:inline;overflow:visible;visibility:visible;opacity:1;isolation:auto;mix-blend-mode:normal;color-interpolation:sRGB;color-interpolation-filters:linearRGB;solid-color:#000000;solid-opacity:1;vector-effect:none;fill:#000000;fill-opacity:1;fill-rule:nonzero;stroke:none;stroke-width:1.63646233;stroke-linecap:round;stroke-linejoin:miter;stroke-miterlimit:10;stroke-dasharray:none;stroke-dashoffset:0;stroke-opacity:1;paint-order:normal;color-rendering:auto;image-rendering:auto;shape-rendering:auto;text-rendering:auto;enable-background:accumulate"
             d="m 31.955078,73.916016 c -1.668135,0 -3.037109,1.368974 -3.037109,3.037109 0,1.668135 1.368974,3.037109 3.037109,3.037109 1.668136,0 3.03711,-1.368974 3.03711,-3.037109 0,-1.668135 -1.368974,-3.037109 -3.03711,-3.037109 z m 0,1.634765 c 0.783726,0 1.402344,0.618618 1.402344,1.402344 0,0.783726 -0.618618,1.402344 -1.402344,1.402344 -0.783725,0 -1.402344,-0.618618 -1.402344,-1.402344 0,-0.783726 0.618619,-1.402344 1.402344,-1.402344 z"
             id="circle1142"
             inkscape:connector-curvature="0" />
          <path
             style="opacity:1;vector-effect:none;fill:#000000;fill-opacity:1;stroke:none;stroke-width:1.37230372;stroke-linecap:round;stroke-linejoin:round;stroke-miterlimit:4;stroke-dasharray:none;stroke-dashoffset:0;stroke-opacity:1;paint-order:stroke fill markers"
             d="m 43.605174,63.610441 a 3,3 0 0 1 -2.999999,2.999999 3,3 0 0 1 -3.000001,-2.999999 3,3 0 0 1 3.000001,-3.000001 3,3 0 0 1 2.999999,3.000001 z"
             id="circle1144"
             inkscape:connector-curvature="0" />
          <path
             style="color:#000000;font-style:normal;font-variant:normal;font-weight:normal;font-stretch:normal;font-size:medium;line-height:normal;font-family:sans-serif;font-variant-ligatures:normal;font-variant-position:normal;font-variant-caps:normal;font-variant-numeric:normal;font-variant-alternates:normal;font-feature-settings:normal;text-indent:0;text-align:start;text-decoration:none;text-decoration-line:none;text-decoration-style:solid;text-decoration-color:#000000;letter-spacing:normal;word-spacing:normal;text-transform:none;writing-mode:lr-tb;direction:ltr;text-orientation:mixed;dominant-baseline:auto;baseline-shift:baseline;text-anchor:start;white-space:normal;shape-padding:0;clip-rule:nonzero;display:inline;overflow:visible;visibility:visible;opacity:1;isolation:auto;mix-blend-mode:normal;color-interpolation:sRGB;color-interpolation-filters:linearRGB;solid-color:#000000;solid-opacity:1;vector-effect:none;fill:#000000;fill-opacity:1;fill-rule:nonzero;stroke:none;stroke-width:1.82278478;stroke-linecap:butt;stroke-linejoin:miter;stroke-miterlimit:4;stroke-dasharray:none;stroke-dashoffset:0;stroke-opacity:1;color-rendering:auto;image-rendering:auto;shape-rendering:auto;text-rendering:auto;enable-background:accumulate"
             d="m 32.722656,62.832031 -1.822265,0.0293 0.195312,12.109375 h 0.002 c 1.89e-4,0.0061 -0.0022,0.0096 -0.002,0.01563 l 1.822266,-0.04492 v -0.01563 c -0.05645,-1.705154 0.349495,-2.478129 0.951172,-3.027343 0.601676,-0.549215 1.55135,-0.879749 2.648437,-1.210938 1.097087,-0.331189 2.334787,-0.661491 3.376953,-1.507812 1.042166,-0.846322 1.756567,-2.24161 1.78711,-4.22461 l -1.822266,-0.0293 c -0.02469,1.603011 -0.465026,2.311823 -1.115234,2.839844 -0.650209,0.528021 -1.642872,0.842335 -2.753907,1.177734 -1.04143,0.314388 -2.179986,0.687291 -3.144531,1.480469 z"
             id="path1146"
             inkscape:connector-curvature="0" />
        </g>
      </g>
    </g>
    <g
       inkscape:label="on"
       id="g1707"
       style="display:inline"
       transform="matrix(0.26458333,0,0,0.26458333,89.512782,57.761868)" />
  </g>
  <style
     id="style1154"
     type="text/css">
	.st0{display:none;fill:#3D3D3D;}
	.st1{display:none;fill:#000100;}
	.st2{fill:#F0F0F0;}
</style>
</svg>
