<?xml version="1.0" encoding="utf-8"?>
<!-- Generator: Adobe Illustrator 21.0.2, SVG Export Plug-In . SVG Version: 6.00 Build 0)  -->
<svg version="1.1"
	 id="svg3355" inkscape:version="0.91 r13725" sodipodi:docname="sequence_off.svg" xmlns:cc="http://creativecommons.org/ns#" xmlns:dc="http://purl.org/dc/elements/1.1/" xmlns:inkscape="http://www.inkscape.org/namespaces/inkscape" xmlns:rdf="http://www.w3.org/1999/02/22-rdf-syntax-ns#" xmlns:sodipodi="http://sodipodi.sourceforge.net/DTD/sodipodi-0.dtd" xmlns:svg="http://www.w3.org/2000/svg"
	 xmlns="http://www.w3.org/2000/svg" xmlns:xlink="http://www.w3.org/1999/xlink" x="0px" y="0px" viewBox="0 0 36.1 36.1"
	 style="enable-background:new 0 0 36.1 36.1;" xml:space="preserve">
<style type="text/css">
	.st0{fill:#808080;}
</style>
<sodipodi:namedview  bordercolor="#666666" borderopacity="1" gridtolerance="10" guidetolerance="10" id="namedview3357" inkscape:current-layer="g3363" inkscape:cx="18.03525" inkscape:cy="18.035875" inkscape:pageopacity="0" inkscape:pageshadow="2" inkscape:window-height="480" inkscape:window-maximized="0" inkscape:window-width="774" inkscape:window-x="450" inkscape:window-y="128" inkscape:zoom="22.261187" objecttolerance="10" pagecolor="#ffffff" showgrid="false">
	</sodipodi:namedview>
<path id="path3379" inkscape:connector-curvature="0" class="st0" d="M28,15c-1.4,0-2.6,1-2.9,2.2H21C20.6,16,19.5,15,18.1,15
	c-1.4,0-2.6,1-2.9,2.2h-4.1C10.7,16,9.6,15,8.2,15c-1.6,0-3,1.4-3,3s1.4,3,3,3c1.4,0,2.6-1,2.9-2.2h4.1c0.4,1.2,1.5,2.2,2.9,2.2
	s2.5-0.9,2.9-2.2h4.1C25.5,20,26.6,21,28,21c1.6,0,3-1.4,3-3S29.6,15,28,15"/>
</svg>
