<?xml version="1.0" encoding="utf-8"?>
<!-- Generator: Adobe Illustrator 21.0.2, SVG Export Plug-In . SVG Version: 6.00 Build 0)  -->
<svg version="1.1" id="Calque_1" xmlns="http://www.w3.org/2000/svg" xmlns:xlink="http://www.w3.org/1999/xlink" x="0px" y="0px"
	 viewBox="0 0 28.9 28.9" style="enable-background:new 0 0 28.9 28.9;" xml:space="preserve">
<style type="text/css">
	.st0{display:none;fill:#3D3D3D;}
	.st1{display:none;fill:#000100;}
	.st2{fill:#FFFFFF;}
</style>
<title>boutons</title>
<rect x="0.5" y="0.5" class="st0" width="27.9" height="27.9"/>
<path class="st1" d="M28.9,28.9H0V0h28.9V28.9z M1,27.9h26.9V1H1V27.9z"/>
<path class="st2" d="M8.2,6C7.5,6,7,6.5,7,7.1c0,0,0,0,0,0l0,0v14.7c0,0.6,0.5,1.1,1.1,1.1c0,0,0,0,0.1,0h12.5
	c0.6,0,1.1-0.5,1.1-1.1l0,0v-9.5h-5.3V6H8.2z M10.2,14.5h3.2v-3.2h2.1v3.2h3.2v2.1h-3.1v3.2h-2.1v-3.2h-3.2L10.2,14.5L10.2,14.5z
	 M17.6,11.3h4.2v-0.1l-4.2-4.3L17.6,11.3L17.6,11.3z"/>
</svg>
