<?xml version="1.0" encoding="utf-8"?>
<!-- Generator: Adobe Illustrator 21.0.2, SVG Export Plug-In . SVG Version: 6.00 Build 0)  -->
<svg version="1.1" id="Calque_1" xmlns="http://www.w3.org/2000/svg" xmlns:xlink="http://www.w3.org/1999/xlink" x="0px" y="0px"
	 viewBox="0 0 600 600" style="enable-background:new 0 0 600 600;" xml:space="preserve">
<style type="text/css">
	.st0{display:none;fill:#3D3D3D;}
	.st1{display:none;fill:#000100;}
	.st2{fill:#FFFFFF;}
</style>
<rect x="12.5" y="12.5" class="st0" width="575" height="575"/>
<path class="st1" d="M600,600H0V0h600V600z M25,575h550V25H25V575z"/>
<g transform="matrix(-0.0376453,0,0,-0.0376453,12,12)">
	<g transform="matrix(1,0,0,1,-256,-256)">
		<path id="path3844" class="st2" d="M-7656.9-1019.3c-373.6-66.9-368.7-58.7-449.8-740c-104.8-879.5-214.9-1135.8-630.2-1466
			c-573.5-456.1-1237.1-392.7-1964,187.8c-730.5,583.3-793.6,591.1-1221.7,150.5c-417-429.1-412.9-464.6,131.9-1148.8
			c620.4-779.1,693.9-1430.7,227.5-2016c-331.1-415.6-586.9-525.5-1466.3-630.2c-553.3-65.9-652.3-96.3-686.6-211
			c-91.1-303.9-91.1-698.7,0-1002.6c34.3-114.7,133.4-145.1,686.6-211c860.9-102.5,1117.1-208.4,1438.7-594.3
			c495.4-594.5,430.5-1260.3-199.9-2051.9c-544.3-683.5-549.9-743.2-111-1169.7c430-417.8,470.2-412.1,1200.9,171.4
			c1209.4,965.7,2391.6,456.7,2569.6-1106.2c35.8-314.5,120.3-803.9,142.7-826.2c68.5-68.5,585.7-123.7,820.3-87.5
			c412.5,63.6,403.9,50.5,486.2,741.7c104.3,875.5,201.7,1108.1,606.2,1446.9c583,488.2,1251.2,420,2040-208.1
			c684.2-544.8,719.7-548.9,1148.8-131.9c442.8,430.2,435,488.6-165.9,1240.6c-560.8,701.8-620.9,1380.9-172.3,1945.1
			c330.3,415.3,586.5,525.4,1466,630.2c696,82.9,682.5,73.6,744.1,509.8c29.6,209.5,6.8,489.3-57.5,703.8
			c-34.4,114.7-133.4,145.1-686.6,211c-875.5,104.3-1108.1,201.7-1446.9,606.2c-488.9,583.8-420.9,1250.1,208.1,2040
			c544.8,684.2,548.9,719.7,131.9,1148.8c-426.4,438.9-486.2,433.2-1169.7-111c-772.7-615.3-1423.4-693.3-2001.5-240.1
			c-409.7,321.3-539,593.6-620.2,1306.8c-35.8,314.5-120.3,803.9-142.7,826.2C-6866.4-1039-7443.7-981.1-7656.9-1019.3
			L-7656.9-1019.3z M-6811.1-4456.7C-4510-4933.9-3614.2-7718.6-5208-9440c-1728.9-1867.3-4867.8-816.5-5163.6,1728.7
			C-10601.7-5732.2-8763.3-4051.8-6811.1-4456.7z"/>
	</g>
</g>
</svg>
