<?xml version="1.0" encoding="utf-8"?>
<!-- Generator: Adobe Illustrator 21.0.2, SVG Export Plug-In . SVG Version: 6.00 Build 0)  -->
<svg version="1.1" id="Calque_1" xmlns="http://www.w3.org/2000/svg" xmlns:xlink="http://www.w3.org/1999/xlink" x="0px" y="0px"
	 viewBox="0 0 28.9 28.9" style="enable-background:new 0 0 28.9 28.9;" xml:space="preserve">
<style type="text/css">
	.st0{display:none;fill:#3D3D3D;}
	.st1{display:none;fill:#000100;}
	.st2{fill:#808080;}
</style>
<title>boutons</title>
<rect x="0.5" y="0.5" class="st0" width="27.9" height="27.9"/>
<path class="st1" d="M28.9,28.9H0V0h28.9V28.9z M1,27.9h26.9V1H1V27.9z"/>
<polygon class="st2" points="11.5,9.2 13.6,9.2 13.6,13.5 9.4,13.5 9.4,11.4 6.2,14.5 9.4,17.7 9.4,15.6 13.6,15.6 13.6,19.8 
	11.5,19.8 14.6,23 17.8,19.8 15.7,19.8 15.7,15.6 19.9,15.6 19.9,17.7 23.1,14.5 19.9,11.4 19.9,13.5 15.7,13.5 15.7,9.2 17.8,9.2 
	14.6,6.1 "/>
</svg>
