<?xml version="1.0" encoding="UTF-8" standalone="no"?>
<!-- Generator: Adobe Illustrator 21.0.2, SVG Export Plug-In . SVG Version: 6.00 Build 0)  -->

<svg
   xmlns:dc="http://purl.org/dc/elements/1.1/"
   xmlns:cc="http://creativecommons.org/ns#"
   xmlns:rdf="http://www.w3.org/1999/02/22-rdf-syntax-ns#"
   xmlns:svg="http://www.w3.org/2000/svg"
   xmlns="http://www.w3.org/2000/svg"
   xmlns:sodipodi="http://sodipodi.sourceforge.net/DTD/sodipodi-0.dtd"
   xmlns:inkscape="http://www.inkscape.org/namespaces/inkscape"
   version="1.1"
   id="Calque_1"
   x="0px"
   y="0px"
   viewBox="0 0 48.000001 48.000001"
   xml:space="preserve"
   sodipodi:docname="refresh_disabled.svg"
   width="48"
   height="48"
   inkscape:version="0.92.4 5da689c313, 2019-01-14"><metadata
   id="metadata17"><rdf:RDF><cc:Work
       rdf:about=""><dc:format>image/svg+xml</dc:format><dc:type
         rdf:resource="http://purl.org/dc/dcmitype/StillImage" /><dc:title>boutons</dc:title></cc:Work></rdf:RDF></metadata><defs
   id="defs15" /><sodipodi:namedview
   pagecolor="#ffffff"
   bordercolor="#666666"
   borderopacity="1"
   objecttolerance="10"
   gridtolerance="10"
   guidetolerance="10"
   inkscape:pageopacity="0"
   inkscape:pageshadow="2"
   inkscape:window-width="1920"
   inkscape:window-height="1015"
   id="namedview13"
   showgrid="false"
   inkscape:zoom="8.1660901"
   inkscape:cx="16.277215"
   inkscape:cy="14.590632"
   inkscape:window-x="0"
   inkscape:window-y="0"
   inkscape:window-maximized="1"
   inkscape:current-layer="layer1" />
<style
   type="text/css"
   id="style2">
	.st0{display:none;fill:#3D3D3D;}
	.st1{display:none;fill:#000100;}
	.st2{fill:#808080;}
</style>
<title
   id="title4">boutons</title>
<rect
   x="0.5"
   y="19.6"
   class="st0"
   width="27.9"
   height="27.9"
   id="rect6"
   style="display:none;fill:#3d3d3d" />
<path
   class="st1"
   d="M 28.9,48 H 0 V 19.1 H 28.9 Z M 1,47 H 27.9 V 20.1 H 1 Z"
   id="path8"
   inkscape:connector-curvature="0"
   style="display:none;fill:#000100" />

<g
   inkscape:groupmode="layer"
   id="layer2"
   inkscape:label="Inside square - hide when exporting"
   transform="translate(0,19.1)"
   style="display:none"
   sodipodi:insensitive="true"><rect
     style="display:inline;opacity:1;vector-effect:none;fill:#c6e3e0;fill-opacity:1;stroke:none;stroke-width:12.29188919;stroke-linecap:square;stroke-linejoin:miter;stroke-miterlimit:4;stroke-dasharray:none;stroke-dashoffset:0;stroke-opacity:1;paint-order:stroke fill markers"
     id="rect22"
     width="30"
     height="30"
     x="9"
     y="-10.1" /></g><g
   inkscape:groupmode="layer"
   id="layer1"
   inkscape:label="Icon"
   style="display:inline"
   transform="translate(0,19.1)"><path
     inkscape:connector-curvature="0"
     class="st2"
     d="M 12.378718,-0.76814758 C 15.513308,-7.3522072 23.385565,-10.143276 29.969634,-7.0230043 36.553703,-3.9027327 39.344776,3.9838254 36.2245,10.567886 33.104223,17.151945 25.217654,19.943013 18.633584,16.822742 17.71754,16.379033 16.844435,15.849446 16.057209,15.205353"
     id="path10"
     style="fill:none;stroke:#808080;stroke-width:2;stroke-miterlimit:4;stroke-dasharray:none;stroke-opacity:1" /><polygon
     transform="matrix(0.14313194,0,0,0.14313172,2.5455538,-16.684395)"
     class="st3"
     points="48.6,94 100.6,114 57.3,148.9 "
     id="polygon12"
     style="fill:#808080;fill-opacity:1" /><path
     inkscape:connector-curvature="0"
     id="path3667"
     class="st3"
     d="m 21.996024,5.878129 c 0,1.1133195 0.90656,2.0198779 2.019882,2.0198779 1.113319,0 2.01988,-0.9065584 2.01988,-2.0198779 0,-1.1133183 -0.906561,-2.0198778 -2.01988,-2.0198778 v 0 c -1.113322,0 -2.019882,0.9065595 -2.019882,2.0198778 m -2.003976,0.031813 c 0,-2.2107312 1.781313,-3.9920414 3.976144,-3.9920414 2.210735,0 3.992046,1.7813102 3.992046,3.976137 0,2.2107335 -1.781311,3.9920426 -3.976142,3.9920426 0,0 0,0 -0.0159,0 -2.194832,0.015901 -3.976145,-1.7813089 -3.976145,-3.976138 m 1.606362,-7.0457146 c -0.874751,0 -1.590457,0.71570492 -1.590457,1.59045461 0,0 0,0 0,0.015901 V 0.88410089 H 17.781312 C 16.795229,0.88410089 16,1.6316145 16,2.5699828 v 6.6799111 c 0,0.9224641 0.795229,1.6858831 1.781312,1.6858831 H 30.218689 C 31.204772,10.935777 32,10.188262 32,9.2498939 V 2.5699828 C 32,1.6475189 31.204772,0.88410091 30.218689,0.88410091 H 27.992048 V 0.47058323 c 0,-0.87475071 -0.699801,-1.59045573 -1.574553,-1.60636013 h -0.0159 z"
     style="fill:#808080;fill-opacity:1;stroke:none;stroke-width:0.15904549" /></g></svg>