<?xml version="1.0" encoding="UTF-8" standalone="no"?>
<!-- Generator: Adobe Illustrator 21.0.2, SVG Export Plug-In . SVG Version: 6.00 Build 0)  -->

<svg
   xmlns:dc="http://purl.org/dc/elements/1.1/"
   xmlns:cc="http://creativecommons.org/ns#"
   xmlns:rdf="http://www.w3.org/1999/02/22-rdf-syntax-ns#"
   xmlns:svg="http://www.w3.org/2000/svg"
   xmlns="http://www.w3.org/2000/svg"
   xmlns:sodipodi="http://sodipodi.sourceforge.net/DTD/sodipodi-0.dtd"
   xmlns:inkscape="http://www.inkscape.org/namespaces/inkscape"
   version="1.1"
   id="Calque_1"
   x="0px"
   y="0px"
   viewBox="0 0 48.000001 48.000001"
   xml:space="preserve"
   sodipodi:docname="nodal_off.svg"
   width="48"
   height="48"
   inkscape:version="0.92.4 5da689c313, 2019-01-14"><metadata
   id="metadata17"><rdf:RDF><cc:Work
       rdf:about=""><dc:format>image/svg+xml</dc:format><dc:type
         rdf:resource="http://purl.org/dc/dcmitype/StillImage" /><dc:title>boutons</dc:title></cc:Work></rdf:RDF></metadata><defs
   id="defs15" /><sodipodi:namedview
   pagecolor="#ffffff"
   bordercolor="#666666"
   borderopacity="1"
   objecttolerance="10"
   gridtolerance="10"
   guidetolerance="10"
   inkscape:pageopacity="0"
   inkscape:pageshadow="2"
   inkscape:window-width="1920"
   inkscape:window-height="1007"
   id="namedview13"
   showgrid="false"
   inkscape:zoom="16.33218"
   inkscape:cx="2.8698726"
   inkscape:cy="23.467988"
   inkscape:window-x="0"
   inkscape:window-y="0"
   inkscape:window-maximized="1"
   inkscape:current-layer="layer1" />
<style
   type="text/css"
   id="style2">
	.st0{display:none;fill:#3D3D3D;}
	.st1{display:none;fill:#000100;}
	.st2{fill:#808080;}
</style>
<title
   id="title4">boutons</title>
<rect
   x="0.5"
   y="19.6"
   class="st0"
   width="27.9"
   height="27.9"
   id="rect6"
   style="display:none;fill:#3d3d3d" />
<path
   class="st1"
   d="M 28.9,48 H 0 V 19.1 H 28.9 Z M 1,47 H 27.9 V 20.1 H 1 Z"
   id="path8"
   inkscape:connector-curvature="0"
   style="display:none;fill:#000100" />

<g
   inkscape:groupmode="layer"
   id="layer1"
   inkscape:label="Icon"
   style="display:inline"
   transform="translate(0,19.1)"><g
     transform="matrix(0.33527195,0,0,0.33527195,7.3060217,-11.860781)"
     id="g4"><path
       inkscape:connector-curvature="0"
       style="fill:#f0f0f0;fill-opacity:1;stroke-width:1.33333337"
       d="m 75.535884,0.93613086 c -9.1844,0.12080004 -16.586,7.59706754 -16.586,16.79866814 0,6.366666 3.543466,11.907466 8.765466,14.757067 l -0.3128,0.9776 c -3.1848,7.259067 -9.976266,12.405468 -18.043467,13.1928 l -0.623201,0.0072 c -7.296134,0.700669 -13.782132,3.715869 -18.826,8.292003 l 0.026,-31.892003 c 6.719734,-2.299599 11.466668,-8.562 11.466668,-15.9309338 0,-9.2767993 -7.523202,-16.7999993 -16.800002,-16.7999993 -9.2768,0 -16.7999999,7.5232 -16.7999999,16.7999993 0,7.3689338 4.7469329,13.6313348 11.3490679,15.8956018 l 0.1176,53.902003 c -6.684802,2.319199 -11.4000019,8.564266 -11.4000019,15.908529 0,9.276804 7.5231999,16.800004 16.8000019,16.800004 9.2768,0 16.8,-7.5232 16.8,-16.800004 0,-7.344263 -4.7152,-13.58933 -11.282668,-15.872663 C 31.20015,66.583202 39.41735,58.457469 49.714816,57.476269 l 0.621066,-0.0069 c 12.088402,-1.250567 22.126403,-8.9331 26.718003,-19.523235 l 1.548666,-3.81 c 7.593071,-1.719334 13.179601,-8.4112 13.179601,-16.4052 0,-9.1290681 -7.285334,-16.5598681 -16.358001,-16.79440214 z M 24.602548,98.936141 v 0 c -3.3868,0 -6.133332,-2.746538 -6.133332,-6.133338 0,-3.386801 2.746532,-6.133335 6.133332,-6.133335 3.3868,0 6.133334,2.746534 6.133334,6.133335 0,3.3868 -2.746534,6.133338 -6.133334,6.133338 z"
       id="path2"
       sodipodi:nodetypes="csccccccsssccssscccccsccccsssc" /></g></g></svg>