<?xml version="1.0" encoding="utf-8"?>
<!-- Generator: Adobe Illustrator 21.0.2, SVG Export Plug-In . SVG Version: 6.00 Build 0)  -->
<svg version="1.1"
	 id="svg3854" inkscape:version="0.91 r13725" sodipodi:docname="cut_on.svg" xmlns:cc="http://creativecommons.org/ns#" xmlns:dc="http://purl.org/dc/elements/1.1/" xmlns:inkscape="http://www.inkscape.org/namespaces/inkscape" xmlns:rdf="http://www.w3.org/1999/02/22-rdf-syntax-ns#" xmlns:sodipodi="http://sodipodi.sourceforge.net/DTD/sodipodi-0.dtd" xmlns:svg="http://www.w3.org/2000/svg"
	 xmlns="http://www.w3.org/2000/svg" xmlns:xlink="http://www.w3.org/1999/xlink" x="0px" y="0px" viewBox="0 0 30 30"
	 style="enable-background:new 0 0 30 30;" xml:space="preserve">
<style type="text/css">
	.st0{fill:#F6A019;}
</style>
<sodipodi:namedview  bordercolor="#666666" borderopacity="1" gridtolerance="10" guidetolerance="10" id="namedview3856" inkscape:current-layer="g3862" inkscape:cx="15" inkscape:cy="15" inkscape:pageopacity="0" inkscape:pageshadow="2" inkscape:window-height="480" inkscape:window-maximized="0" inkscape:window-width="774" inkscape:window-x="0" inkscape:window-y="0" inkscape:zoom="7.8666667" objecttolerance="10" pagecolor="#ffffff" showgrid="false">
	</sodipodi:namedview>
<g id="g3862" transform="matrix(1.25,0,0,-1.25,0,30)" inkscape:groupmode="layer" inkscape:label="boutons_iscore">
	<path id="path3864" inkscape:connector-curvature="0" class="st0" d="M0.5,0.5h23v23h-23C0.5,23.5,0.5,0.5,0.5,0.5z"/>
	<path id="path3866" inkscape:connector-curvature="0" d="M0,0h24v24H0V0z M1,23h22V1L1,1V23z"/>
	<path id="path3878" inkscape:connector-curvature="0" d="M8.4,8.1c0,0.7,0.4,1.3,0.9,1.3c0.5,0,0.9-0.6,0.9-1.3
		c0-0.7-0.4-1.3-0.9-1.3C8.8,6.8,8.4,7.4,8.4,8.1 M7.6,8.1c0-1.2,0.8-2.2,1.7-2.2s1.8,1,1.8,2.2s-0.8,2.2-1.8,2.2S7.6,9.3,7.6,8.1
		 M13.7,8.1c0,0.7,0.4,1.3,0.9,1.3c0.5,0,0.9-0.6,0.9-1.3c0-0.7-0.4-1.3-0.9-1.3C14.1,6.8,13.7,7.4,13.7,8.1 M12.9,8.1
		c0-1.2,0.8-2.2,1.8-2.2c1,0,1.8,1,1.8,2.2s-0.8,2.2-1.8,2.2C13.7,10.3,12.9,9.3,12.9,8.1 M12.3,12.1c-0.1-0.3-0.5-0.3-0.7,0
		c-0.1,0.3-2.4,4.7-3,5.9c-0.2-0.1-0.3-0.4-0.2-0.6c0.2-0.4,2.9-7.2,3.1-7.7c0.2-0.5,0.6-0.5,0.8,0c0.3,0.7,3,7.4,3.1,7.6
		c0.1,0.3,0,0.5-0.2,0.6C14.7,16.9,12.5,12.5,12.3,12.1"/>
</g>
</svg>
