<?xml version="1.0" encoding="UTF-8" standalone="no"?>
<!DOCTYPE svg PUBLIC "-//W3C//DTD SVG 1.1//EN" "http://www.w3.org/Graphics/SVG/1.1/DTD/svg11.dtd">
<svg width="100%" height="100%" viewBox="0 0 24 24" version="1.1" xmlns="http://www.w3.org/2000/svg" xmlns:xlink="http://www.w3.org/1999/xlink" xml:space="preserve" style="fill-rule:evenodd;clip-rule:evenodd;stroke-linejoin:round;stroke-miterlimit:1.41421;">
    <rect x="0.5" y="0.5" width="23" height="23" style="fill:rgb(246,160,25);"/>
    <path d="M24,24L0,24L0,0L24,0L24,24ZM1,23L23,23L23,1L1,1L1,23Z" style="fill-rule:nonzero;"/>
    <g transform="matrix(-0.0376453,0,0,-0.0376453,12,12)">
        <g transform="matrix(1,0,0,1,-256,-256)">
            <path id="path3844" d="M245.5,511.002C230.555,508.326 230.754,508.653 227.509,481.401C223.319,446.22 218.913,435.971 202.303,422.761C179.362,404.518 152.818,407.055 123.744,430.271C94.525,453.603 91.999,453.914 74.875,436.29C58.197,419.125 58.36,417.705 80.151,390.339C104.966,359.176 107.907,333.11 89.25,309.698C76.005,293.076 65.776,288.68 30.599,284.491C8.468,281.856 4.508,280.639 3.134,276.052C-0.508,263.897 -0.508,248.103 3.134,235.948C4.508,231.361 8.468,230.144 30.599,227.509C65.035,223.408 75.282,219.175 88.146,203.737C107.96,179.957 105.366,153.326 80.151,121.661C58.381,94.323 58.155,91.932 75.71,74.875C92.91,58.163 94.519,58.393 123.744,81.729C172.119,120.356 219.408,99.998 226.528,37.48C227.961,24.899 231.34,5.326 232.234,4.432C234.975,1.691 255.662,-0.515 265.044,0.933C281.543,3.478 281.199,2.954 284.491,30.599C288.662,65.62 292.56,74.924 308.74,88.474C332.058,108.002 358.788,105.275 390.339,80.151C417.705,58.36 419.125,58.197 436.29,74.875C454,92.083 453.688,94.419 429.653,124.5C407.222,152.573 404.816,179.737 422.761,202.303C435.971,218.913 446.22,223.319 481.401,227.509C509.242,230.824 508.699,230.451 511.166,247.901C512.351,256.281 511.437,267.471 508.866,276.052C507.492,280.639 503.532,281.856 481.401,284.491C446.38,288.662 437.076,292.56 423.526,308.74C403.971,332.09 406.69,358.745 431.849,390.339C453.64,417.705 453.803,419.125 437.125,436.29C420.068,453.845 417.677,453.619 390.339,431.849C359.433,407.238 333.404,404.117 310.281,422.247C293.892,435.097 288.721,445.992 285.472,474.52C284.039,487.101 280.66,506.674 279.766,507.568C277.119,510.215 254.028,512.529 245.5,511.002L245.5,511.002ZM279.334,373.509C371.376,354.42 407.209,243.034 343.458,174.177C274.304,99.485 148.749,141.519 136.914,243.325C127.71,322.488 201.244,389.704 279.334,373.509Z" style="fill:white;fill-rule:nonzero;"/>
        </g>
    </g>
</svg>
