<?xml version="1.0" encoding="utf-8"?>
<!-- Generator: Adobe Illustrator 21.0.2, SVG Export Plug-In . SVG Version: 6.00 Build 0)  -->
<svg version="1.1" id="Off" xmlns="http://www.w3.org/2000/svg" xmlns:xlink="http://www.w3.org/1999/xlink" x="0px" y="0px"
	 viewBox="0 0 301 301" style="enable-background:new 0 0 301 301;" xml:space="preserve">
<style type="text/css">
	.st0{display:none;fill:#3D3D3D;}
	.st1{display:none;fill:#000100;}
	.st2{fill:none;stroke:#808080;stroke-width:10;stroke-miterlimit:10;}
	.st3{fill:#808080;}
</style>
<title>refresh_offPlan de travail 1</title>
<rect x="5.2" y="5.2" class="st0" width="290.5" height="290.5"/>
<path class="st1" d="M301,301H0V0h301V301z M10.4,290.5h280.1V10.4H10.4V290.5z"/>
<path class="st2" d="M68.7,111.2c21.9-46,76.9-65.5,122.9-43.7s65.5,76.9,43.7,122.9s-76.9,65.5-122.9,43.7
	c-6.4-3.1-12.5-6.8-18-11.3"/>
<polygon class="st3" points="100.6,114 57.3,148.9 48.6,94 "/>
<path id="path3667" class="st3" d="M137.2,156.7c0,7,5.7,12.7,12.7,12.7s12.7-5.7,12.7-12.7s-5.7-12.7-12.7-12.7l0,0
	C142.9,144,137.2,149.7,137.2,156.7 M124.6,156.9c0-13.9,11.2-25.1,25-25.1c13.9,0,25.1,11.2,25.1,25c0,13.9-11.2,25.1-25,25.1
	c0,0,0,0-0.1,0C135.8,182,124.6,170.7,124.6,156.9 M134.7,112.6c-5.5,0-10,4.5-10,10c0,0,0,0,0,0.1v2.6h-14
	c-6.2,0-11.2,4.7-11.2,10.6v42c0,5.8,5,10.6,11.2,10.6h78.2c6.2,0,11.2-4.7,11.2-10.6v-42c0-5.8-5-10.6-11.2-10.6h-14v-2.6
	c0-5.5-4.4-10-9.9-10.1h-0.1H134.7z"/>
</svg>
