<?xml version="1.0" encoding="utf-8"?>
<!-- Generator: Adobe Illustrator 21.0.2, SVG Export Plug-In . SVG Version: 6.00 Build 0)  -->
<svg version="1.1" id="Calque_1" xmlns="http://www.w3.org/2000/svg" xmlns:xlink="http://www.w3.org/1999/xlink" x="0px" y="0px"
	 viewBox="0 0 28.9 28.9" style="enable-background:new 0 0 28.9 28.9;" xml:space="preserve">
<style type="text/css">
	.st0{display:none;fill:#3D3D3D;}
	.st1{display:none;fill:#000100;}
	.st2{fill:#FFFFFF;}
</style>
<title>boutons</title>
<rect x="0.5" y="0.5" class="st0" width="27.9" height="27.9"/>
<path class="st1" d="M28.9,28.9H0V0h28.9V28.9z M1,27.9h26.9V1H1V27.9z"/>
<path class="st2" d="M8.1,18.7h12.7v-8.5H8.1V18.7z M8.1,10.2l1.1,1.1h10.6v6.3H9.1v-6.3L8.1,10.2z"/>
<polygon class="st2" points="19.7,8.1 19.7,9.2 21.8,9.2 21.8,11.2 22.9,11.2 22.9,8.1 "/>
<polygon class="st2" points="6,8.1 6,11.2 7,11.2 7,9.2 9.1,9.2 9.1,8.1 "/>
<polygon class="st2" points="21.8,17.6 21.8,19.7 19.7,19.7 19.7,20.8 22.9,20.8 22.9,17.6 "/>
<polygon class="st2" points="6,17.6 6,20.8 9.1,20.8 9.1,19.7 7,19.7 7,17.6 "/>
</svg>
