<?xml version="1.0" encoding="utf-8"?>
<!-- Generator: Adobe Illustrator 21.0.2, SVG Export Plug-In . SVG Version: 6.00 Build 0)  -->
<svg version="1.1"
	 id="svg3643" inkscape:version="0.91 r13725" sodipodi:docname="snapshot_off.svg" xmlns:cc="http://creativecommons.org/ns#" xmlns:dc="http://purl.org/dc/elements/1.1/" xmlns:inkscape="http://www.inkscape.org/namespaces/inkscape" xmlns:rdf="http://www.w3.org/1999/02/22-rdf-syntax-ns#" xmlns:sodipodi="http://sodipodi.sourceforge.net/DTD/sodipodi-0.dtd" xmlns:svg="http://www.w3.org/2000/svg"
	 xmlns="http://www.w3.org/2000/svg" xmlns:xlink="http://www.w3.org/1999/xlink" x="0px" y="0px" viewBox="0 0 36.1 36.1"
	 style="enable-background:new 0 0 36.1 36.1;" xml:space="preserve">
<style type="text/css">
	.st0{display:none;fill:#3E3E3E;}
	.st1{display:none;}
	.st2{clip-path:url(#SVGID_2_);}
	.st3{fill:#FFFFFF;}
</style>
<sodipodi:namedview  bordercolor="#666666" borderopacity="1" gridtolerance="10" guidetolerance="10" id="namedview3645" inkscape:current-layer="g3651" inkscape:cx="-2.2933216" inkscape:cy="18.035875" inkscape:pageopacity="0" inkscape:pageshadow="2" inkscape:window-height="480" inkscape:window-maximized="0" inkscape:window-width="774" inkscape:window-x="460" inkscape:window-y="165" inkscape:zoom="6.5425158" objecttolerance="10" pagecolor="#ffffff" showgrid="false">
	</sodipodi:namedview>
<g id="g3651" transform="matrix(1.25,0,0,-1.25,0,36.07175)" inkscape:groupmode="layer" inkscape:label="boutons_iscore">
	<path id="path3653" inkscape:connector-curvature="0" class="st0" d="M0.5,0.5h27.9v27.9H0.5V0.5z"/>
	<path id="path3655" inkscape:connector-curvature="0" class="st1" d="M0,0h28.9v28.9H0V0z M1,27.9h26.9V1H1V27.9z"/>
	<g id="g3657">
		<g>
			<defs>
				<rect id="SVGID_1_" x="-3.6" y="-3.6" width="36.1" height="36.1"/>
			</defs>
			<clipPath id="SVGID_2_">
				<use xlink:href="#SVGID_1_"  style="overflow:visible;"/>
			</clipPath>
			<g id="g3659" class="st2">
				<g id="g3665" transform="translate(12.1908,13.3887)">
					<path id="path3667" inkscape:connector-curvature="0" class="st3" d="M0,0c0-1.2,1-2.2,2.1-2.2c1.2,0,2.1,1,2.1,2.2
						c0,1.2-1,2.1-2.1,2.1C1,2.1,0,1.2,0,0 M-2.1,0c0,2.4,1.9,4.3,4.2,4.3c2.3,0,4.2-1.9,4.2-4.3c0-2.3-1.9-4.2-4.2-4.2
						C-0.2-4.3-2.1-2.4-2.1,0 M-0.4,7.4c-0.9,0-1.7-0.8-1.7-1.7V5.3h-2.4c-1,0-1.9-0.8-1.9-1.8v-7.1c0-1,0.8-1.8,1.9-1.8H8.7
						c1,0,1.9,0.8,1.9,1.8v7.1c0,1-0.8,1.8-1.9,1.8H6.4v0.4c0,0.9-0.8,1.7-1.7,1.7C4.7,7.4-0.4,7.4-0.4,7.4z"/>
				</g>
			</g>
		</g>
	</g>
</g>
</svg>
