<?xml version="1.0" encoding="utf-8"?>
<!-- Created by sK1 2.0rc4 (https://sk1project.net/) -->
<svg xmlns="http://www.w3.org/2000/svg" height="125.0px" width="100.0px" version="1.1" xmlns:xlink="http://www.w3.org/1999/xlink" id="bb1181bc-ccc9-11e9-90a7-2c56dc395547">

<g>
	<path style="stroke-width:0.2835;stroke:#a0a0a0;fill-rule:evenodd;stroke-miterlimit:10.433;fill:#a0a0a0;" d="M 64.3,49.1 L 58.3,49.1 C 58.4,49.6 58.5,50.0 58.5,50.5 58.5,51.0 58.4,51.5 58.3,51.9 L 64.3,51.9 C 64.2,51.4 64.1,51.0 64.1,50.5 64.1,50.0 64.2,49.6 64.3,49.1 Z" />
	<path style="stroke-width:0.2835;stroke:#a0a0a0;fill-rule:evenodd;stroke-miterlimit:10.433;fill:#a0a0a0;" d="M 20.0,50.5 C 20.0,53.8 17.3,56.5 14.0,56.5 10.7,56.5 8.0,53.8 8.0,50.5 8.0,47.2 10.7,44.5 14.0,44.5 17.3,44.5 20.0,47.2 20.0,50.5 Z M 13.9,48.3 C 12.6,48.3 11.6,49.3 11.6,50.6 11.6,51.9 12.6,52.9 13.9,52.9 15.2,52.9 16.2,51.9 16.2,50.6 16.2,49.3 15.2,48.3 13.9,48.3 Z" />
	<path style="stroke-width:0.2835;stroke:#a0a0a0;fill-rule:evenodd;stroke-miterlimit:10.433;fill:#a0a0a0;" d="M 38.9,50.5 C 38.9,53.8 36.2,56.5 32.9,56.5 29.6,56.5 26.9,53.8 26.9,50.5 26.9,47.2 29.6,44.5 32.9,44.5 36.2,44.5 38.9,47.2 38.9,50.5 Z M 32.9,48.3 C 31.6,48.3 30.6,49.3 30.6,50.6 30.6,51.9 31.6,52.9 32.9,52.9 34.2,52.9 35.2,51.9 35.2,50.6 35.1,49.3 34.1,48.3 32.9,48.3 Z" />
	<path style="stroke-width:0.2835;stroke:#a0a0a0;fill-rule:evenodd;stroke-miterlimit:10.433;fill:#a0a0a0;" d="M 57.8,50.5 C 57.8,53.8 55.1,56.5 51.8,56.5 48.5,56.5 45.8,53.8 45.8,50.5 45.8,47.2 48.5,44.5 51.8,44.5 55.1,44.5 57.8,47.2 57.8,50.5 Z M 51.8,48.3 C 50.5,48.3 49.5,49.3 49.5,50.6 49.5,51.9 50.5,52.9 51.8,52.9 53.1,52.9 54.1,51.9 54.1,50.6 54.1,49.3 53.0,48.3 51.8,48.3 Z" />
	<path style="stroke-width:0.2835;stroke:#a0a0a0;fill-rule:evenodd;stroke-miterlimit:10.433;fill:#a0a0a0;" d="M 76.8,50.5 C 76.8,53.8 74.1,56.5 70.8,56.5 67.5,56.5 64.8,53.8 64.8,50.5 64.8,47.2 67.5,44.5 70.8,44.5 74.1,44.5 76.8,47.2 76.8,50.5 Z M 70.7,48.3 C 69.4,48.3 68.4,49.3 68.4,50.6 68.4,51.9 69.4,52.9 70.7,52.9 72.0,52.9 73.0,51.9 73.0,50.6 73.0,49.3 72.0,48.3 70.7,48.3 Z" />
	<path style="stroke-width:0.2835;stroke:#a0a0a0;fill-rule:evenodd;stroke-miterlimit:10.433;fill:#a0a0a0;" d="M 7.3,50.5 C 7.3,50.0 7.4,49.5 7.5,49.1 L 1.5,49.1 1.5,51.9 7.4,51.9 C 7.4,51.5 7.3,51.0 7.3,50.5 Z" />
	<g>
		<path style="stroke-width:0.2835;stroke:#a0a0a0;fill-rule:evenodd;stroke-miterlimit:10.433;fill:#a0a0a0;" d="M 26.4,51.9 C 26.3,51.4 26.2,51.0 26.2,50.5 26.2,50.0 26.3,49.5 26.4,49.1 L 20.4,49.1 C 20.5,49.6 20.6,50.0 20.6,50.5 20.6,51.0 20.5,51.5 20.4,51.9 L 26.4,51.9 Z" />
		<path style="stroke-width:0.2835;stroke:#a0a0a0;fill-rule:evenodd;stroke-miterlimit:10.433;fill:#a0a0a0;" d="M 45.3,49.1 L 39.3,49.1 C 39.4,49.6 39.5,50.0 39.5,50.5 39.5,51.0 39.4,51.5 39.3,51.9 L 45.3,51.9 C 45.2,51.4 45.1,51.0 45.1,50.5 45.1,50.0 45.2,49.6 45.3,49.1 Z" />
	</g>
	<path style="stroke-width:0.2835;stroke:#a0a0a0;fill-rule:evenodd;stroke-miterlimit:10.433;fill:#a0a0a0;" d="M 85.3,42.0 L 98.4,49.6 C 99.1,50.0 99.1,51.0 98.4,51.4 L 85.3,59.0 C 84.6,59.4 83.8,58.9 83.8,58.1 L 83.8,42.8 C 83.8,42.1 84.6,41.6 85.3,42.0 Z" />
	<path style="stroke-width:0.2835;stroke:#a0a0a0;fill-rule:evenodd;stroke-miterlimit:10.433;fill:#a0a0a0;" d="M 77.2,49.1 C 77.3,49.6 77.4,50.0 77.4,50.5 77.4,51.0 77.3,51.5 77.2,51.9 L 82.9,51.9 82.9,49.1 77.2,49.1 Z" />
</g>
</svg>