<?xml version="1.0" encoding="UTF-8" standalone="no"?>
<!-- Created with Inkscape (http://www.inkscape.org/) -->

<svg
   xmlns:dc="http://purl.org/dc/elements/1.1/"
   xmlns:cc="http://creativecommons.org/ns#"
   xmlns:rdf="http://www.w3.org/1999/02/22-rdf-syntax-ns#"
   xmlns:svg="http://www.w3.org/2000/svg"
   xmlns="http://www.w3.org/2000/svg"
   xmlns:sodipodi="http://sodipodi.sourceforge.net/DTD/sodipodi-0.dtd"
   xmlns:inkscape="http://www.inkscape.org/namespaces/inkscape"
   width="6.7024331mm"
   height="7.4930825mm"
   viewBox="0 0 6.7024331 7.4930825"
   version="1.1"
   id="svg8"
   inkscape:version="0.92.1 r"
   sodipodi:docname="cond.svg">
  <defs
     id="defs2" />
  <sodipodi:namedview
     id="base"
     pagecolor="#ffffff"
     bordercolor="#666666"
     borderopacity="1.0"
     inkscape:pageopacity="0.0"
     inkscape:pageshadow="2"
     inkscape:zoom="7.9195959"
     inkscape:cx="11.039953"
     inkscape:cy="-5.9090023"
     inkscape:document-units="mm"
     inkscape:current-layer="layer1"
     inkscape:document-rotation="0"
     showgrid="false"
     fit-margin-top="0"
     fit-margin-left="0"
     fit-margin-right="0"
     fit-margin-bottom="0"
     inkscape:window-width="1403"
     inkscape:window-height="1714"
     inkscape:window-x="1445"
     inkscape:window-y="20"
     inkscape:window-maximized="0"
     inkscape:snap-text-baseline="true" />
  <metadata
     id="metadata5">
    <rdf:RDF>
      <cc:Work
         rdf:about="">
        <dc:format>image/svg+xml</dc:format>
        <dc:type
           rdf:resource="http://purl.org/dc/dcmitype/StillImage" />
        <dc:title />
      </cc:Work>
    </rdf:RDF>
  </metadata>
  <g
     inkscape:label="Layer 1"
     inkscape:groupmode="layer"
     id="layer1"
     transform="translate(-48.078359,-45.073886)">
    <g
       aria-label="C"
       transform="scale(1.0755484,0.92975829)"
       style="font-style:normal;font-variant:normal;font-weight:bold;font-stretch:normal;line-height:0%;font-family:'Fira Sans';-inkscape-font-specification:'Fira Sans, Bold';text-align:start;letter-spacing:0px;word-spacing:0px;writing-mode:lr-tb;text-anchor:start;fill:#f0dc00;fill-opacity:1;stroke:none;stroke-width:0.26458332px;stroke-linecap:butt;stroke-linejoin:miter;stroke-opacity:1"
       id="text817">
      <path
         d="m 49.986378,53.593115 0.932103,0.235429 q -0.293084,1.148313 -1.057024,1.7537 -0.759137,0.600582 -1.859403,0.600582 -1.138704,0 -1.854599,-0.461247 -0.711089,-0.466052 -1.085852,-1.345304 -0.369959,-0.879253 -0.369959,-1.888231 0,-1.100267 0.418005,-1.917059 0.42281,-0.821597 1.19636,-1.244407 0.778355,-0.427614 1.710459,-0.427614 1.057025,0 1.777723,0.538121 0.720699,0.538122 1.004174,1.513468 l -0.91769,0.21621 q -0.245037,-0.768746 -0.711089,-1.119486 -0.466052,-0.35074 -1.172337,-0.35074 -0.811987,0 -1.359718,0.389177 -0.542927,0.389178 -0.763941,1.047416 -0.221014,0.653434 -0.221014,1.350109 0,0.898471 0.259451,1.571123 0.264256,0.667848 0.816792,0.999369 0.552536,0.331522 1.19636,0.331522 0.783159,0 1.326086,-0.451638 0.542926,-0.451638 0.735113,-1.3405 z"
         style="font-style:normal;font-variant:normal;font-weight:normal;font-stretch:normal;font-size:9.83994102px;line-height:1;font-family:'Liberation Sans';-inkscape-font-specification:'Liberation Sans, Normal';text-align:start;writing-mode:lr-tb;text-anchor:start;fill:#f0dc00;fill-opacity:1;stroke-width:0.26458332px"
         id="path4484" />
    </g>
  </g>
</svg>
