<?xml version="1.0" encoding="UTF-8" standalone="no"?>
<svg
   inkscape:version="1.2.1 (9c6d41e410, 2022-07-14)"
   height="48"
   width="48"
   sodipodi:docname="preset_snapshot_off.svg"
   xml:space="preserve"
   viewBox="0 0 48.000001 48.000001"
   y="0px"
   x="0px"
   id="Calque_1"
   version="1.1"
   xmlns:inkscape="http://www.inkscape.org/namespaces/inkscape"
   xmlns:sodipodi="http://sodipodi.sourceforge.net/DTD/sodipodi-0.dtd"
   xmlns="http://www.w3.org/2000/svg"
   xmlns:svg="http://www.w3.org/2000/svg"
   xmlns:rdf="http://www.w3.org/1999/02/22-rdf-syntax-ns#"
   xmlns:cc="http://creativecommons.org/ns#"
   xmlns:dc="http://purl.org/dc/elements/1.1/"><metadata
   id="metadata17"><rdf:RDF><cc:Work
       rdf:about=""><dc:format>image/svg+xml</dc:format><dc:type
         rdf:resource="http://purl.org/dc/dcmitype/StillImage" /><dc:title>boutons</dc:title></cc:Work></rdf:RDF></metadata><defs
   id="defs15" /><sodipodi:namedview
   inkscape:snap-bbox-midpoints="true"
   inkscape:snap-bbox="true"
   inkscape:document-rotation="0"
   inkscape:current-layer="Calque_1"
   inkscape:window-maximized="1"
   inkscape:window-y="0"
   inkscape:window-x="0"
   id="namedview4"
   pagecolor="#ffffff"
   bordercolor="#666666"
   borderopacity="1.0"
   inkscape:showpageshadow="2"
   inkscape:pageopacity="0.0"
   inkscape:pagecheckerboard="0"
   inkscape:deskcolor="#d1d1d1"
   showgrid="false"
   inkscape:zoom="17.9375"
   inkscape:cx="20.097561"
   inkscape:cy="13.993031" /> HEAD:src/lib/resources/icons_svg/toolbutton_28/open_new_window_on.svg
   inkscape:cy=&quot;27.143238&quot;
   inkscape:cx=&quot;17.740961&quot;
   inkscape:zoom=&quot;7.38934&quot;
========
   inkscape:cy=&quot;23.389407&quot;
   inkscape:cx=&quot;11.939618&quot;
   inkscape:zoom=&quot;20.549447&quot;
&gt;&gt;&gt;&gt;&gt;&gt;&gt;&gt; 4a23982d4 (Added preset record icon and preset snapshot icon):src/lib/resources/icons_svg/process_header_icons/preset_snapshot_off.svg
   showgrid=&quot;false&quot;
   id=&quot;namedview13&quot;
   inkscape:window-height=&quot;1015&quot;
   inkscape:window-width=&quot;1920&quot;
   inkscape:pageshadow=&quot;2&quot;
   inkscape:pageopacity=&quot;0&quot;
   guidetolerance=&quot;10&quot;
   gridtolerance=&quot;10&quot;
   objecttolerance=&quot;10&quot;
   borderopacity=&quot;1&quot;
   bordercolor=&quot;#666666&quot;
   pagecolor=&quot;#ffffff&quot; /&gt;
<style
   id="style2"
   type="text/css">
	.st0{display:none;fill:#3D3D3D;}
	.st1{display:none;fill:#000100;}
	.st2{fill:#808080;}
</style>
<title
   id="title4">boutons</title>
<rect
   style="display:none;fill:#3d3d3d"
   id="rect6"
   height="27.9"
   width="27.9"
   class="st0"
   y="19.6"
   x="0.5" />
<path
   style="display:none;fill:#000100"
   inkscape:connector-curvature="0"
   id="path8"
   d="M 28.9,48 H 0 V 19.1 H 28.9 Z M 1,47 H 27.9 V 20.1 H 1 Z"
   class="st1" />

<g
   transform="translate(0,19.1)"
   style="display:inline"
   inkscape:label="Icon"
   id="layer1" /> HEAD:src/lib/resources/icons_svg/toolbutton_28/open_new_window_on.svg
   inkscape:groupmode=&quot;layer&quot;&gt;<path
   sodipodi:nodetypes="cc"
   id="path13" />========
   inkscape:groupmode=&quot;layer&quot;&gt;<path
   style="display:inline;fill:#a0a0a0;fill-opacity:1;stroke:none;stroke-width:0.347912"
   d="m 19.616302,26.139657 c 0,2.435384 1.9831,4.418483 4.418492,4.418483 2.435386,0 4.418488,-1.983099 4.418488,-4.418483 0,-2.435383 -1.983102,-4.418483 -4.418488,-4.418483 v 0 c -2.435392,0 -4.418492,1.9831 -4.418492,4.418483 m -4.383697,0.06958 c 0,-4.835974 3.896623,-8.732593 8.697815,-8.732593 4.835982,0 8.732601,3.896619 8.732601,8.6978 0,4.83598 -3.896619,8.732594 -8.697811,8.732594 0,0 0,0 -0.03478,0 -4.801201,0.03478 -8.697822,-3.896613 -8.697822,-8.697801 M 18.746524,10.79674 c -1.913517,0 -3.479125,1.565605 -3.479125,3.479121 0,0 0,0 0,0.03478 v 0.904569 H 10.39662 C 8.239563,15.21522 6.5,16.850405 6.5,18.903087 v 14.612305 c 0,2.01789 1.739563,3.68787 3.89662,3.68787 h 27.206763 c 2.157055,0 3.896617,-1.63519 3.896617,-3.68787 V 18.903087 c 0,-2.01789 -1.739562,-3.687867 -3.896617,-3.687867 h -4.870778 v -0.904569 c 0,-1.913519 -1.530815,-3.479123 -3.444335,-3.513913 h -0.03478 z"
   id="path16">&gt;&gt;&gt;&gt;&gt;&gt;&gt; 4a23982d4 (Added preset record icon and preset snapshot icon):src/lib/resources/icons_svg/process_header_icons/preset_snapshot_off.svg
     class=&quot;st3&quot;
     d=&quot;M 11.355054,17.580302 30.492005,-1.7004245&quot;
     style=&quot;display:inline;fill:#f6a019;fill-opacity:1;stroke:#f6a019;stroke-width:2.704;stroke-miterlimit:3.5;stroke-dasharray:5.408, 2.70400000000000018;stroke-dashoffset:8.3824;stroke-opacity:1&quot;
     id=&quot;line14&quot; /&gt;<path
   sodipodi:nodetypes="cccc"
   class="st2"
   d="M 20.621657,-2.599999 31.49834,8.4208149 32.49834,-3.6 Z"
   style="display:inline;fill:#f6a019;fill-opacity:1;stroke:none;stroke-width:2.0697"
   id="polygon10" /></path></svg>
