<?xml version="1.0" encoding="UTF-8" standalone="no"?>
<!-- Generator: Adobe Illustrator 21.0.2, SVG Export Plug-In . SVG Version: 6.00 Build 0)  -->

<svg
   version="1.1"
   id="Calque_1"
   x="0px"
   y="0px"
   viewBox="0 0 14 14"
   style="enable-background:new 0 0 14 14;"
   xml:space="preserve"
   sodipodi:docname="process_preset_icon.svg"
   inkscape:version="1.1 (c4e8f9ed74, 2021-05-24)"
   xmlns:inkscape="http://www.inkscape.org/namespaces/inkscape"
   xmlns:sodipodi="http://sodipodi.sourceforge.net/DTD/sodipodi-0.dtd"
   xmlns="http://www.w3.org/2000/svg"
   xmlns:svg="http://www.w3.org/2000/svg"
   xmlns:rdf="http://www.w3.org/1999/02/22-rdf-syntax-ns#"
   xmlns:cc="http://creativecommons.org/ns#"
   xmlns:dc="http://purl.org/dc/elements/1.1/"><defs
   id="defs13" /><sodipodi:namedview
   id="namedview11"
   pagecolor="#ffffff"
   bordercolor="#666666"
   borderopacity="1.0"
   inkscape:pageshadow="2"
   inkscape:pageopacity="0.0"
   inkscape:pagecheckerboard="0"
   showgrid="false"
   inkscape:zoom="32.107143"
   inkscape:cx="0.91879866"
   inkscape:cy="-0.59176863"
   inkscape:window-width="2558"
   inkscape:window-height="1415"
   inkscape:window-x="0"
   inkscape:window-y="0"
   inkscape:window-maximized="1"
   inkscape:current-layer="Calque_1" />
<style
   type="text/css"
   id="style2">
	.st0{display:none;fill:#F6A019;}
	.st1{fill:#03C3DD;}
</style>
<title
   id="title4">boutons</title>
<circle
   class="st0"
   cx="7"
   cy="7"
   r="7"
   id="circle6" />

<metadata
   id="metadata117"><rdf:RDF><cc:Work
       rdf:about=""><dc:title>boutons</dc:title></cc:Work></rdf:RDF></metadata><path
   id="rect19"
   style="color:#000000;fill:#03c3dd;stroke-width:1.15321;stroke-linecap:square;-inkscape-stroke:none;paint-order:stroke fill markers"
   d="M 0.79492188 1.5664062 L 0.79492188 2.1445312 L 0.79492188 11.453125 L 13.152344 11.453125 L 13.152344 2.8027344 L 6.3554688 2.8027344 L 5.1191406 1.5664062 L 2.3398438 1.5664062 L 0.79492188 1.5664062 z M 6.5664062 4.8359375 C 6.5760995 4.834959 6.5857436 4.8359375 6.5957031 4.8359375 L 7.6152344 4.8359375 C 7.7745873 4.8359375 7.9023438 4.963694 7.9023438 5.1230469 L 7.9023438 6.2226562 L 11.617188 6.2226562 C 11.803998 6.2226563 11.953125 6.3737363 11.953125 6.5605469 L 11.953125 7.6230469 C 11.953125 7.8098574 11.803997 7.9609375 11.617188 7.9609375 L 7.9023438 7.9609375 L 7.9023438 9.0019531 C 7.9023438 9.161306 7.7745873 9.2890625 7.6152344 9.2890625 L 6.5957031 9.2890625 C 6.4363502 9.2890625 6.3085938 9.161306 6.3085938 9.0019531 L 6.3085938 7.9609375 L 2.2402344 7.9609375 C 2.0534238 7.9609375 1.9023438 7.8098574 1.9023438 7.6230469 L 1.9023438 6.5605469 C 1.9023437 6.3737363 2.0534238 6.2226562 2.2402344 6.2226562 L 6.3085938 6.2226562 L 6.3085938 5.1230469 C 6.3085938 4.9736536 6.4210094 4.8506152 6.5664062 4.8359375 z " /><g
   aria-label="P"
   id="text4556"
   style="font-weight:bold;font-size:49.4862px;font-family:'Fira Sans';-inkscape-font-specification:'Fira Sans, Bold';letter-spacing:0px;word-spacing:0px;stroke-width:1.23715px" /></svg>
