<?xml version="1.0" encoding="utf-8"?>
<!-- Generator: Adobe Illustrator 21.0.2, SVG Export Plug-In . SVG Version: 6.00 Build 0)  -->
<svg version="1.1"
	 id="svg3483" inkscape:version="0.91 r13725" sodipodi:docname="clip_duration_off.svg" xmlns:cc="http://creativecommons.org/ns#" xmlns:dc="http://purl.org/dc/elements/1.1/" xmlns:inkscape="http://www.inkscape.org/namespaces/inkscape" xmlns:rdf="http://www.w3.org/1999/02/22-rdf-syntax-ns#" xmlns:sodipodi="http://sodipodi.sourceforge.net/DTD/sodipodi-0.dtd" xmlns:svg="http://www.w3.org/2000/svg"
	 xmlns="http://www.w3.org/2000/svg" xmlns:xlink="http://www.w3.org/1999/xlink" x="0px" y="0px" viewBox="0 0 36.1 36.1"
	 style="enable-background:new 0 0 36.1 36.1;" xml:space="preserve">
<style type="text/css">
	.st0{display:none;fill:#3E3E3E;}
	.st1{display:none;}
	.st2{fill:#808080;}
	.st3{fill:none;stroke:#808080;stroke-miterlimit:10;}
</style>
<sodipodi:namedview  bordercolor="#666666" borderopacity="1" gridtolerance="10" guidetolerance="10" id="namedview3485" inkscape:current-layer="g3491" inkscape:cx="18.035875" inkscape:cy="18.035875" inkscape:pageopacity="0" inkscape:pageshadow="2" inkscape:window-height="480" inkscape:window-maximized="0" inkscape:window-width="774" inkscape:window-x="0" inkscape:window-y="0" inkscape:zoom="6.5425158" objecttolerance="10" pagecolor="#ffffff" showgrid="false">
	</sodipodi:namedview>
<g id="g3491" transform="matrix(1.25,0,0,-1.25,0,36.07175)" inkscape:groupmode="layer" inkscape:label="boutons_iscore">
	<path id="path3493" inkscape:connector-curvature="0" class="st0" d="M0.5,0.5h27.9v27.9H0.5V0.5z"/>
	<path id="path3495" inkscape:connector-curvature="0" class="st1" d="M0,0h28.9v28.9H0V0z M1,27.9h26.9V1H1V27.9z"/>
	<path id="path3499" inkscape:connector-curvature="0" class="st2" d="M6.6,10.6l-4.5,3.6l4.5,3.7V10.6z"/>
	<path id="path3503" inkscape:connector-curvature="0" class="st2" d="M22.5,17.9l4.5-3.6l-4.5-3.7V17.9z"/>
	<path id="path3515" inkscape:connector-curvature="0" class="st2" d="M13.7,11.6c-0.4,0.2-0.6,0.5-0.6,0.9c0,0.6,0.7,1.1,1.5,1.1
		c0.8,0,1.5-0.5,1.5-1.1c0-0.4-0.2-0.7-0.6-0.9l0.6-2.5h-3L13.7,11.6z M12.3,16.7c0,1.2,1,2.3,2.3,2.3s2.3-1,2.3-2.3v-2.3h-4.5
		C12.3,14.4,12.3,16.7,12.3,16.7z M10.8,16.6v-2.2H10v-6h9.1v6h-0.7v2.2c0,2.1-1.7,3.8-3.8,3.8S10.8,18.8,10.8,16.6"/>
	<path id="path3519" inkscape:connector-curvature="0" class="st3" d="M8.4,22.8v-17"/>
	<path id="path3523" inkscape:connector-curvature="0" class="st3" d="M20.7,22.8v-17"/>
</g>
</svg>
