<?xml version="1.0" encoding="utf-8"?>
<!-- Generator: Adobe Illustrator 21.0.2, SVG Export Plug-In . SVG Version: 6.00 Build 0)  -->
<svg version="1.1"
	 id="svg3563" inkscape:version="0.91 r13725" sodipodi:docname="clip_duration_on.svg" xmlns:cc="http://creativecommons.org/ns#" xmlns:dc="http://purl.org/dc/elements/1.1/" xmlns:inkscape="http://www.inkscape.org/namespaces/inkscape" xmlns:rdf="http://www.w3.org/1999/02/22-rdf-syntax-ns#" xmlns:sodipodi="http://sodipodi.sourceforge.net/DTD/sodipodi-0.dtd" xmlns:svg="http://www.w3.org/2000/svg"
	 xmlns="http://www.w3.org/2000/svg" xmlns:xlink="http://www.w3.org/1999/xlink" x="0px" y="0px" viewBox="0 0 36.1 36.1"
	 style="enable-background:new 0 0 36.1 36.1;" xml:space="preserve">
<style type="text/css">
	.st0{fill:#F6A019;}
	.st1{stroke:#000000;stroke-miterlimit:10;}
</style>
<sodipodi:namedview  bordercolor="#666666" borderopacity="1" gridtolerance="10" guidetolerance="10" id="namedview3565" inkscape:current-layer="g3571" inkscape:cx="17.775325" inkscape:cy="17.999935" inkscape:pageopacity="0" inkscape:pageshadow="2" inkscape:window-height="480" inkscape:window-maximized="0" inkscape:window-width="774" inkscape:window-x="343" inkscape:window-y="126" inkscape:zoom="6.5425158" objecttolerance="10" pagecolor="#ffffff" showgrid="false">
	</sodipodi:namedview>
<g id="g3571" transform="matrix(1.25,0,0,-1.25,0,36.07175)" inkscape:groupmode="layer" inkscape:label="boutons_iscore">
	<path id="path3573" inkscape:connector-curvature="0" class="st0" d="M0.5,0.5h27.9v27.9H0.5C0.5,28.4,0.5,0.5,0.5,0.5z"/>
	<path id="path3575" inkscape:connector-curvature="0" d="M0,0h28.9v28.9H0V0z M1,27.9h26.9V1H1V27.9z"/>
	<path id="path3579" inkscape:connector-curvature="0" d="M6.6,10.6l-4.5,3.6l4.5,3.6V10.6z"/>
	<path id="path3583" inkscape:connector-curvature="0" d="M22.5,17.9l4.5-3.6l-4.5-3.6V17.9z"/>
	<path id="path3599" inkscape:connector-curvature="0" class="st1" d="M8.4,22.8v-17"/>
	<path id="path3603" inkscape:connector-curvature="0" class="st1" d="M20.7,22.8v-17"/>
	<path id="path3595" inkscape:connector-curvature="0" d="M13.7,11.6c-0.4,0.2-0.6,0.5-0.6,0.9c0,0.6,0.7,1.1,1.5,1.1
		c0.8,0,1.5-0.5,1.5-1.1c0-0.4-0.2-0.7-0.6-0.9L16,9h-3L13.7,11.6z M12.3,16.6c0,1.2,1,2.3,2.3,2.3c1.3,0,2.3-1,2.3-2.3v-2.3h-4.5
		C12.3,14.3,12.3,16.6,12.3,16.6z M10.8,16.6v-2.3H10v-6h9.1v6h-0.8v2.3c0,2.1-1.7,3.8-3.8,3.8C12.5,20.4,10.8,18.7,10.8,16.6"/>
</g>
</svg>
