<?xml version="1.0" encoding="UTF-8" standalone="no"?>
<!-- Created with Inkscape (http://www.inkscape.org/) -->

<svg
   xmlns:dc="http://purl.org/dc/elements/1.1/"
   xmlns:cc="http://creativecommons.org/ns#"
   xmlns:rdf="http://www.w3.org/1999/02/22-rdf-syntax-ns#"
   xmlns:svg="http://www.w3.org/2000/svg"
   xmlns="http://www.w3.org/2000/svg"
   xmlns:sodipodi="http://sodipodi.sourceforge.net/DTD/sodipodi-0.dtd"
   xmlns:inkscape="http://www.inkscape.org/namespaces/inkscape"
   id="svg3483"
   version="1.1"
   inkscape:version="0.91 r13725"
   xml:space="preserve"
   width="36.071751"
   height="36.071751"
   viewBox="0 0 36.071751 36.071751"
   sodipodi:docname="clip_duration_off.svg"><metadata
     id="metadata3489"><rdf:RDF><cc:Work
         rdf:about=""><dc:format>image/svg+xml</dc:format><dc:type
           rdf:resource="http://purl.org/dc/dcmitype/StillImage" /><dc:title></dc:title></cc:Work></rdf:RDF></metadata><defs
     id="defs3487"><clipPath
       clipPathUnits="userSpaceOnUse"
       id="clipPath3509"><path
         d="m 0,28.857 28.857,0 L 28.857,0 0,0 0,28.857 Z"
         id="path3511"
         inkscape:connector-curvature="0" /></clipPath></defs><sodipodi:namedview
     pagecolor="#ffffff"
     bordercolor="#666666"
     borderopacity="1"
     objecttolerance="10"
     gridtolerance="10"
     guidetolerance="10"
     inkscape:pageopacity="0"
     inkscape:pageshadow="2"
     inkscape:window-width="774"
     inkscape:window-height="480"
     id="namedview3485"
     showgrid="false"
     inkscape:zoom="6.5425158"
     inkscape:cx="18.035875"
     inkscape:cy="18.035875"
     inkscape:window-x="0"
     inkscape:window-y="0"
     inkscape:window-maximized="0"
     inkscape:current-layer="g3491" /><g
     id="g3491"
     inkscape:groupmode="layer"
     inkscape:label="boutons_iscore"
     transform="matrix(1.25,0,0,-1.25,0,36.07175)"><path
       d="m 0.499,0.5 27.858,0 0,27.857 -27.858,0 0,-27.857 z"
       style="fill:#3e3e3e;fill-opacity:1;fill-rule:nonzero;stroke:none"
       id="path3493"
       inkscape:connector-curvature="0" /><path
       d="m 0,0 28.858,0 0,28.858 L 0,28.858 0,0 Z m 1,27.858 26.858,0 L 27.858,1 1,1 1,27.858 Z"
       style="fill:#000000;fill-opacity:1;fill-rule:nonzero;stroke:none"
       id="path3495"
       inkscape:connector-curvature="0" /><g
       id="g3497"
       transform="translate(6.6132,10.5908)"><path
         d="M 0,0 -4.49,3.634 0,7.267 0,0 Z"
         style="fill:#ffffff;fill-opacity:1;fill-rule:nonzero;stroke:none"
         id="path3499"
         inkscape:connector-curvature="0" /></g><g
       id="g3501"
       transform="translate(22.5204,17.8574)"><path
         d="M 0,0 4.489,-3.633 0,-7.267 0,0 Z"
         style="fill:#ffffff;fill-opacity:1;fill-rule:nonzero;stroke:none"
         id="path3503"
         inkscape:connector-curvature="0" /></g><g
       id="g3505"><g
         id="g3507"
         clip-path="url(#clipPath3509)"><g
           id="g3513"
           transform="translate(13.6679,11.5606)"><path
             d="m 0,0 c -0.363,0.203 -0.605,0.529 -0.605,0.901 0,0.622 0.667,1.12 1.486,1.12 0.819,0 1.477,-0.498 1.477,-1.12 C 2.358,0.529 2.124,0.203 1.762,0 l 0.619,-2.527 -3.008,0 L 0,0 Z m -1.387,5.078 c 0,1.244 1.024,2.253 2.276,2.253 1.259,0 2.273,-1.009 2.273,-2.253 l 0,-2.297 -4.549,0 0,2.297 z m -1.517,-0.029 0,-2.268 -0.758,0 0,-6.045 9.101,0 0,6.045 -0.759,0 0,2.268 c 0,2.101 -1.7,3.8 -3.791,3.8 -2.094,0 -3.793,-1.699 -3.793,-3.8"
             style="fill:#ffffff;fill-opacity:1;fill-rule:nonzero;stroke:none"
             id="path3515"
             inkscape:connector-curvature="0" /></g><g
           id="g3517"
           transform="translate(8.3857,22.8321)"><path
             d="M 0,0 0,-16.957"
             style="fill:none;stroke:#ffffff;stroke-width:1;stroke-linecap:butt;stroke-linejoin:miter;stroke-miterlimit:10;stroke-dasharray:none;stroke-opacity:1"
             id="path3519"
             inkscape:connector-curvature="0" /></g><g
           id="g3521"
           transform="translate(20.7284,22.8321)"><path
             d="M 0,0 0,-16.957"
             style="fill:none;stroke:#ffffff;stroke-width:1;stroke-linecap:butt;stroke-linejoin:miter;stroke-miterlimit:10;stroke-dasharray:none;stroke-opacity:1"
             id="path3523"
             inkscape:connector-curvature="0" /></g></g></g></g></svg>