<svg id="Calque_1" data-name="Calque 1" xmlns="http://www.w3.org/2000/svg" viewBox="0 0 28.86 28.86"><defs><style>.cls-1{fill:#3d3d3d;}.cls-2{fill:#000100;}.cls-3{fill:#fff;}</style></defs><title>boutons</title><rect class="cls-1" x="0.5" y="0.5" width="27.86" height="27.86"/><path class="cls-2" d="M28.86,28.86H0V0H28.86V28.86ZM1,27.86H27.86V1H1V27.86Z"/><path class="cls-3" d="M8.17,6A1.13,1.13,0,0,0,7,7.09H7V21.76A1.13,1.13,0,0,0,8.17,22.9H20.68a1.14,1.14,0,0,0,1.14-1.13h0V12.29H16.54V6H8.17Zm2,8.47h3.18V11.25h2.09v3.18h3.19v2.08H15.49V19.7H13.39V16.52H10.21V14.43Zm7.41-3.17h4.21V11.21L17.61,6.9v4.36Z"/></svg>