<?xml version="1.0" encoding="UTF-8" standalone="no"?>
<!-- Created with Inkscape (http://www.inkscape.org/) -->

<svg
   xmlns:dc="http://purl.org/dc/elements/1.1/"
   xmlns:cc="http://creativecommons.org/ns#"
   xmlns:rdf="http://www.w3.org/1999/02/22-rdf-syntax-ns#"
   xmlns:svg="http://www.w3.org/2000/svg"
   xmlns="http://www.w3.org/2000/svg"
   xmlns:sodipodi="http://sodipodi.sourceforge.net/DTD/sodipodi-0.dtd"
   xmlns:inkscape="http://www.inkscape.org/namespaces/inkscape"
   id="svg3854"
   version="1.1"
   inkscape:version="0.91 r13725"
   xml:space="preserve"
   width="30"
   height="30"
   viewBox="0 0 30 30"
   sodipodi:docname="cut_on.svg"><metadata
     id="metadata3860"><rdf:RDF><cc:Work
         rdf:about=""><dc:format>image/svg+xml</dc:format><dc:type
           rdf:resource="http://purl.org/dc/dcmitype/StillImage" /><dc:title></dc:title></cc:Work></rdf:RDF></metadata><defs
     id="defs3858"><clipPath
       clipPathUnits="userSpaceOnUse"
       id="clipPath3872"><path
         d="M 0,24 24,24 24,0 0,0 0,24 Z"
         id="path3874"
         inkscape:connector-curvature="0" /></clipPath></defs><sodipodi:namedview
     pagecolor="#ffffff"
     bordercolor="#666666"
     borderopacity="1"
     objecttolerance="10"
     gridtolerance="10"
     guidetolerance="10"
     inkscape:pageopacity="0"
     inkscape:pageshadow="2"
     inkscape:window-width="774"
     inkscape:window-height="480"
     id="namedview3856"
     showgrid="false"
     inkscape:zoom="7.8666667"
     inkscape:cx="15"
     inkscape:cy="15"
     inkscape:window-x="0"
     inkscape:window-y="0"
     inkscape:window-maximized="0"
     inkscape:current-layer="g3862" /><g
     id="g3862"
     inkscape:groupmode="layer"
     inkscape:label="boutons_iscore"
     transform="matrix(1.25,0,0,-1.25,0,30)"><path
       d="m 0.499,0.499 23,0 0,23 -23,0 0,-23 z"
       style="fill:#f6a019;fill-opacity:1;fill-rule:nonzero;stroke:none"
       id="path3864"
       inkscape:connector-curvature="0" /><path
       d="M 0,0 24,0 24,24 0,24 0,0 Z m 1,23 22.001,0 0,-22.001 L 1,0.999 1,23 Z"
       style="fill:#000000;fill-opacity:1;fill-rule:nonzero;stroke:none"
       id="path3866"
       inkscape:connector-curvature="0" /><g
       id="g3868"><g
         id="g3870"
         clip-path="url(#clipPath3872)"><g
           id="g3876"
           transform="translate(8.4471,8.1113)"><path
             d="M 0,0 C 0,0.707 0.402,1.275 0.9,1.275 1.4,1.275 1.803,0.707 1.803,0 1.803,-0.719 1.4,-1.287 0.9,-1.287 0.402,-1.287 0,-0.719 0,0 m -0.822,0.025 c 0,-1.207 0.787,-2.187 1.75,-2.187 0.963,0 1.75,0.98 1.75,2.187 0,1.207 -0.787,2.188 -1.75,2.188 -0.963,0 -1.75,-0.981 -1.75,-2.188 M 5.241,0 c 0,0.707 0.411,1.275 0.909,1.275 C 6.65,1.275 7.053,0.707 7.053,0 7.053,-0.719 6.65,-1.287 6.15,-1.287 5.652,-1.287 5.241,-0.719 5.241,0 M 4.428,0.025 c 0,-1.207 0.779,-2.187 1.75,-2.187 0.963,0 1.75,0.98 1.75,2.187 0,1.207 -0.787,2.188 -1.75,2.188 -0.971,0 -1.75,-0.981 -1.75,-2.188 M 3.885,3.998 C 3.736,3.691 3.369,3.699 3.211,3.998 3.063,4.305 0.85,8.73 0.244,9.939 0.053,9.824 -0.053,9.555 0.035,9.336 0.193,8.924 2.932,2.178 3.133,1.68 3.324,1.225 3.779,1.215 3.973,1.68 4.252,2.361 6.947,9.039 7.061,9.318 7.166,9.58 7.043,9.834 6.852,9.939 6.283,8.793 4.096,4.418 3.885,3.998"
             style="fill:#000000;fill-opacity:1;fill-rule:nonzero;stroke:none"
             id="path3878"
             inkscape:connector-curvature="0" /></g></g></g></g></svg>