<?xml version="1.0" encoding="utf-8"?>
<!-- Generator: Adobe Illustrator 21.0.2, SVG Export Plug-In . SVG Version: 6.00 Build 0)  -->
<svg version="1.1"
	 id="svg3771" inkscape:version="0.91 r13725" sodipodi:docname="cut_off.svg" xmlns:cc="http://creativecommons.org/ns#" xmlns:dc="http://purl.org/dc/elements/1.1/" xmlns:inkscape="http://www.inkscape.org/namespaces/inkscape" xmlns:rdf="http://www.w3.org/1999/02/22-rdf-syntax-ns#" xmlns:sodipodi="http://sodipodi.sourceforge.net/DTD/sodipodi-0.dtd" xmlns:svg="http://www.w3.org/2000/svg"
	 xmlns="http://www.w3.org/2000/svg" xmlns:xlink="http://www.w3.org/1999/xlink" x="0px" y="0px" viewBox="0 0 30 30"
	 style="enable-background:new 0 0 30 30;" xml:space="preserve">
<style type="text/css">
	.st0{fill:#808080;}
</style>
<sodipodi:namedview  bordercolor="#666666" borderopacity="1" gridtolerance="10" guidetolerance="10" id="namedview3773" inkscape:current-layer="g3779" inkscape:cx="15" inkscape:cy="15" inkscape:pageopacity="0" inkscape:pageshadow="2" inkscape:window-height="480" inkscape:window-maximized="0" inkscape:window-width="774" inkscape:window-x="603" inkscape:window-y="167" inkscape:zoom="7.8666667" objecttolerance="10" pagecolor="#ffffff" showgrid="false">
	</sodipodi:namedview>
<path id="path3795" inkscape:connector-curvature="0" class="st0" d="M10.6,19.9c0-0.9,0.5-1.6,1.1-1.6c0.6,0,1.1,0.8,1.1,1.6
	s-0.5,1.6-1.1,1.6S10.6,20.7,10.6,19.9 M9.6,19.9c0,1.5,1,2.8,2.2,2.8s2.2-1.2,2.2-2.8s-1.1-2.8-2.4-2.8S9.6,18.4,9.6,19.9
	 M17.1,19.9c0-0.9,0.5-1.6,1.1-1.6s1.1,0.8,1.1,1.6s-0.5,1.6-1.1,1.6C17.7,21.5,17.1,20.7,17.1,19.9 M16.1,19.9c0,1.5,1,2.8,2.2,2.8
	s2.2-1.2,2.2-2.8s-1.1-2.8-2.2-2.8C17.1,17.1,16.1,18.4,16.1,19.9 M15.4,14.9c-0.2,0.4-0.6,0.4-0.9,0c-0.1-0.4-3-5.9-3.8-7.4
	c-0.1,0.1-0.4,0.4-0.3,0.7c0.3,0.5,3.6,9,3.9,9.6c0.2,0.6,0.8,0.6,1,0c0.4-0.9,3.8-9.2,3.9-9.5c0.1-0.4,0-0.6-0.2-0.8
	C18.4,8.9,15.7,14.4,15.4,14.9"/>
</svg>
