<?xml version="1.0" encoding="UTF-8" standalone="no"?>
<!DOCTYPE svg PUBLIC "-//W3C//DTD SVG 1.1//EN" "http://www.w3.org/Graphics/SVG/1.1/DTD/svg11.dtd">
<svg width="100%" height="100%" viewBox="0 0 24 24" version="1.1" xmlns="http://www.w3.org/2000/svg" xmlns:xlink="http://www.w3.org/1999/xlink" xml:space="preserve" style="fill-rule:evenodd;clip-rule:evenodd;stroke-miterlimit:1.5;">
    <rect x="0.5" y="0.5" width="23" height="23" style="fill:rgb(246,160,25);"/>
    <path d="M24,24L0,24L0,0L24,0L24,24ZM1,23L23,23L23,1L1,1L1,23Z" style="fill-rule:nonzero;"/>
    <g transform="matrix(0.763972,0,0,1.18275,2.81064,-1.54653)">
        <rect x="1.5" y="6.5" width="21" height="11.717" style="fill:none;stroke:black;stroke-width:1.51px;"/>
    </g>
    <g transform="matrix(1,0,0,1,4,0.00571004)">
        <g transform="matrix(1,0,0,1,-10.8533,1.84759)">
            <circle cx="10.853" cy="4.147" r="1.853" style="fill:none;stroke:black;stroke-width:1.5px;"/>
        </g>
        <g transform="matrix(1.60727,0,0,1.60727,-17.2337,-4.17439)">
            <circle cx="10.677" cy="6.323" r="0.823" style="fill:rgb(246,160,25);"/>
        </g>
    </g>
    <g transform="matrix(0.396659,0,0,0.614094,7.20994,5.8129)">
        <rect x="1.5" y="6.5" width="21" height="11.717" style="fill:none;stroke:black;stroke-width:1.93px;"/>
    </g>
    <g transform="matrix(0.519207,0,0,0.519207,7.82747,6.61883)">
        <g transform="matrix(1,0,0,1,-10.8533,1.84759)">
            <circle cx="10.853" cy="4.147" r="1.853" style="fill:none;stroke:black;stroke-width:1.93px;"/>
        </g>
        <g transform="matrix(1.60727,0,0,1.60727,-17.2337,-4.17439)">
            <circle cx="10.677" cy="6.323" r="0.823" style="fill:rgb(246,160,25);"/>
        </g>
    </g>
</svg>
