<?xml version="1.0" encoding="UTF-8" standalone="no"?>
<!DOCTYPE svg PUBLIC "-//W3C//DTD SVG 1.1//EN" "http://www.w3.org/Graphics/SVG/1.1/DTD/svg11.dtd">
<svg width="100%" height="100%" viewBox="0 0 24 24" version="1.1" xmlns="http://www.w3.org/2000/svg" xmlns:xlink="http://www.w3.org/1999/xlink" xml:space="preserve" style="fill-rule:evenodd;clip-rule:evenodd;stroke-miterlimit:1.5;">
    <rect x="0.5" y="0.5" width="23" height="23" style="fill:rgb(61,61,61);"/>
    <path d="M24,24L0,24L0,0L24,0L24,24ZM1,23L23,23L23,1L1,1L1,23Z" style="fill:rgb(0,1,0);fill-rule:nonzero;"/>
    <g transform="matrix(0.763972,0,0,1.18275,2.81064,-1.54653)">
        <rect x="1.5" y="6.5" width="21" height="11.717" style="fill:none;stroke:white;stroke-width:1.51px;"/>
    </g>
    <g transform="matrix(1,0,0,1,4,0.00571004)">
        <g transform="matrix(1,0,0,1,-10.8533,1.84759)">
            <circle cx="10.853" cy="4.147" r="1.853" style="fill:none;stroke:white;stroke-width:1.5px;"/>
        </g>
        <g transform="matrix(1.60727,0,0,1.60727,-17.2337,-4.17439)">
            <circle cx="10.677" cy="6.323" r="0.823" style="fill:rgb(61,61,61);"/>
        </g>
    </g>
    <g transform="matrix(1,0,0,1,0.75,-0.25)">
        <path d="M11.25,9.5C11.762,9.5 12.252,9.591 12.707,9.757C13.202,9.938 13.655,10.208 14.045,10.549C14.936,11.328 15.5,12.474 15.5,13.75C15.5,16.096 13.596,18 11.25,18C8.904,18 7,16.096 7,13.75C7,11.404 8.904,9.5 11.25,9.5Z" style="fill:none;stroke:white;stroke-width:1px;stroke-linecap:square;"/>
    </g>
    <g transform="matrix(1,0.487012,-0.624768,1.28286,6.24768,-8.65164)">
        <rect x="11.5" y="8.5" width="2" height="1.5" style="fill:rgb(61,61,61);"/>
    </g>
    <g transform="matrix(1,0.487012,-0.624768,1.28286,3.81052,-0.403245)">
        <rect x="11.5" y="8.5" width="2" height="1.5" style="fill:rgb(61,61,61);"/>
    </g>
    <g transform="matrix(0.00716956,0.999974,-0.999974,0.00716956,20.3365,0.434997)">
        <path d="M9,7.901L9.599,9.099L8.401,9.099L9,7.901Z" style="fill:none;stroke:white;stroke-width:1.5px;stroke-linecap:square;"/>
    </g>
    <g transform="matrix(0.0168071,-0.999859,0.999859,0.0168071,2.94687,26.4054)">
        <path d="M9,7.901L9.599,9.099L8.401,9.099L9,7.901Z" style="fill:none;stroke:white;stroke-width:1.5px;stroke-linecap:square;"/>
    </g>
</svg>
