<?xml version="1.0" encoding="utf-8"?>
<!-- Generator: Adobe Illustrator 21.0.2, SVG Export Plug-In . SVG Version: 6.00 Build 0)  -->
<svg version="1.1" id="Calque_1" xmlns="http://www.w3.org/2000/svg" xmlns:xlink="http://www.w3.org/1999/xlink" x="0px" y="0px"
	 viewBox="0 0 600 600" style="enable-background:new 0 0 600 600;" xml:space="preserve">
<style type="text/css">
	.st0{display:none;fill:#3D3D3D;}
	.st1{display:none;fill:#000100;}
	.st2{fill:#808080;}
</style>
<rect x="12.5" y="12.5" class="st0" width="575" height="575"/>
<path class="st1" d="M600,600H0V0h600V600z M25,575h550V25H25V575z"/>
<path id="path3844" class="st2" d="M309.9,60c14.1,2.5,13.9,2.2,16.9,27.9c3.9,33.1,8.1,42.8,23.7,55.2
	c21.6,17.2,46.6,14.8,73.9-7.1c27.5-22,29.9-22.3,46-5.7c15.7,16.2,15.5,17.5-5,43.2c-23.4,29.3-26.1,53.9-8.6,75.9
	c12.5,15.6,22.1,19.8,55.2,23.7c20.8,2.5,24.6,3.6,25.8,7.9c3.4,11.4,3.4,26.3,0,37.7c-1.3,4.3-5,5.5-25.8,7.9
	c-32.4,3.9-42.1,7.8-54.2,22.4c-18.6,22.4-16.2,47.4,7.5,77.2c20.5,25.7,20.7,28,4.2,44c-16.2,15.7-17.7,15.5-45.2-6.5
	c-45.5-36.4-90-17.2-96.7,41.6c-1.3,11.8-4.5,30.3-5.4,31.1c-2.6,2.6-22,4.7-30.9,3.3c-15.5-2.4-15.2-1.9-18.3-27.9
	c-3.9-33-7.6-41.7-22.8-54.5c-21.9-18.4-47.1-15.8-76.8,7.8c-25.8,20.5-27.1,20.7-43.2,5c-16.7-16.2-16.4-18.4,6.2-46.7
	c21.1-26.4,23.4-52,6.5-73.2c-12.4-15.6-22.1-19.8-55.2-23.7c-26.2-3.1-25.7-2.8-28-19.2c-1.1-7.9-0.3-18.4,2.2-26.5
	c1.3-4.3,5-5.5,25.8-7.9c33-3.9,41.7-7.6,54.5-22.8c18.4-22,15.8-47.1-7.8-76.8c-20.5-25.8-20.7-27.1-5-43.2
	c16.1-16.5,18.3-16.3,44,4.2c29.1,23.2,53.6,26.1,75.3,9c15.4-12.1,20.3-22.3,23.3-49.2c1.3-11.8,4.5-30.3,5.4-31.1
	C280.1,60.8,301.9,58.6,309.9,60L309.9,60z M278,189.4c-86.6,18-120.3,122.8-60.3,187.6c65.1,70.3,183.2,30.7,194.4-65.1
	C420.7,237.4,351.5,174.2,278,189.4z"/>
</svg>
