<?xml version="1.0" encoding="UTF-8" standalone="no"?>
<!DOCTYPE svg PUBLIC "-//W3C//DTD SVG 1.1//EN" "http://www.w3.org/Graphics/SVG/1.1/DTD/svg11.dtd">
<svg width="100%" height="100%" viewBox="0 0 29 29" version="1.1" xmlns="http://www.w3.org/2000/svg" xmlns:xlink="http://www.w3.org/1999/xlink" xml:space="preserve" xmlns:serif="http://www.serif.com/" style="fill-rule:evenodd;clip-rule:evenodd;stroke-linejoin:round;stroke-miterlimit:1.5;">
    <rect x="0.5" y="0.5" width="27.86" height="27.86" style="fill:rgb(246,160,25);"/>
    <path d="M29,29L0,29L0,0L29,0L29,29ZM1,27.86L27.86,27.86L27.86,1L1,1L1,27.86Z" style="fill-rule:nonzero;"/>
    <g transform="matrix(1.5,0,0,1,-1.25,0)">
        <path d="M19.167,14.365L1.167,14.365" style="fill:none;stroke:black;stroke-width:1.57px;stroke-dasharray:1.57,1.57;"/>
    </g>
    <g transform="matrix(1,0,0,1,5.74,7.65)">
        <path d="M9.52,18.35L5.02,14.71L9.52,11.08L9.52,18.35Z" style="fill-rule:nonzero;"/>
    </g>
    <g transform="matrix(1,0,0,1,1.49,7.585)">
        <path d="M19.52,11.08L24.01,14.71L19.52,18.35L19.52,11.08Z" style="fill-rule:nonzero;"/>
    </g>
    <g transform="matrix(1,0,0,1,4,0.308777)">
        <circle cx="14.121" cy="14.121" r="2.621"/>
    </g>
    <path d="M18.121,14.43L18.121,28.254" style="fill:none;stroke:black;stroke-width:2px;"/>
</svg>
