<?xml version="1.0" encoding="UTF-8" standalone="no"?>
<!DOCTYPE svg PUBLIC "-//W3C//DTD SVG 1.1//EN" "http://www.w3.org/Graphics/SVG/1.1/DTD/svg11.dtd">
<svg width="100%" height="100%" viewBox="0 0 29 29" version="1.1" xmlns="http://www.w3.org/2000/svg" xmlns:xlink="http://www.w3.org/1999/xlink" xml:space="preserve" xmlns:serif="http://www.serif.com/" style="fill-rule:evenodd;clip-rule:evenodd;stroke-linecap:square;stroke-miterlimit:1.5;">
    <rect x="0.5" y="0.5" width="27.86" height="27.86" style="fill:rgb(246,160,25);"/>
    <path d="M28.86,28.86L0,28.86L0,0L28.86,0L28.86,28.86ZM1,27.86L27.86,27.86L27.86,1L1,1L1,27.86Z" style="fill:rgb(0,1,0);fill-rule:nonzero;"/>
    <g transform="matrix(1,0,0,1,0.5,-0.215)">
        <g transform="matrix(1,0,0,1,4.66,-2.785)">
            <path d="M10.86,8.93L20,14.46L10.88,19.93L10.88,8.93L10.86,8.93Z" style="fill:rgb(0,1,0);fill-rule:nonzero;"/>
        </g>
        <g transform="matrix(1,0,0,1,-1.66,-2.785)">
            <path d="M18,14.43L8,14.5L8,22.5" style="fill:none;stroke:black;stroke-width:2px;"/>
        </g>
        <g transform="matrix(1,0,0,1,-2.66,4.215)">
            <circle cx="9" cy="17.5" r="1" style="fill:rgb(235,235,235);stroke:black;stroke-width:2px;"/>
        </g>
    </g>
</svg>
