<svg id="On" xmlns="http://www.w3.org/2000/svg" xmlns:xlink="http://www.w3.org/1999/xlink" viewBox="0 0 300.99 301"><defs><style>.cls-1,.cls-4{fill:none;}.cls-2{fill:#f6a019;}.cls-3{fill:#000100;}.cls-4{stroke:#1d1d1b;stroke-miterlimit:10;stroke-width:10px;}.cls-5{fill:#1d1d1b;}.cls-6{clip-path:url(#clip-path);}</style><clipPath id="clip-path"><rect class="cls-1" x="65" y="65.01" width="170.98" height="170.98"/></clipPath></defs><title>refresh_onPlan de travail 1</title><rect class="cls-2" x="5.21" y="5.21" width="290.56" height="290.56"/><path class="cls-3" d="M301,301H0V0H301ZM10.43,290.56H290.56V10.43H10.43Z"/><path class="cls-4" d="M70,111.82A90.75,90.75,0,1,1,95.26,221.66"/><polygon class="cls-5" points="100.21 111.68 61.49 150.4 47.21 97.54 100.21 111.68"/><g id="g3715"><g id="g3721"><g class="cls-6"><g id="g3723"><g id="g3729"><path id="path3731" d="M137.23,156.67A12.67,12.67,0,1,0,149.87,144a12.7,12.7,0,0,0-12.64,12.7m-12.63.25A25.1,25.1,0,1,1,149.68,182a25.13,25.13,0,0,1-25.08-25.13m10.11-44.31a10,10,0,0,0-10,10.06v2.64h-14c-6.16,0-11.19,4.71-11.19,10.55v42c0,5.84,5,10.55,11.19,10.55h78.11c6.16,0,11.18-4.71,11.18-10.55v-42c0-5.84-5-10.55-11.18-10.55h-14v-2.64a10,10,0,0,0-10.06-10.06Z"/></g></g></g></g></g></svg>