<svg id="Off" xmlns="http://www.w3.org/2000/svg" xmlns:xlink="http://www.w3.org/1999/xlink" viewBox="0 0 300.99 301"><defs><style>.cls-1,.cls-4{fill:none;}.cls-2{fill:#3d3d3d;}.cls-3{fill:#000100;}.cls-4{stroke:#fff;stroke-miterlimit:10;stroke-width:10px;}.cls-5{fill:#fff;}.cls-6{clip-path:url(#clip-path);}</style><clipPath id="clip-path"><rect class="cls-1" x="64.99" y="65" width="170.99" height="171"/></clipPath></defs><title>refresh_offPlan de travail 1</title><rect class="cls-2" x="5.21" y="5.21" width="290.55" height="290.55"/><path class="cls-3" d="M301,301H0V0H301ZM10.43,290.55H290.55V10.43H10.43Z"/><path class="cls-4" d="M68.74,111.19A92.2,92.2,0,1,1,94.4,222.78"/><polygon class="cls-5" points="100.61 114.01 57.29 148.91 48.61 93.96 100.61 114.01"/><g id="g3651"><g id="g3657"><g class="cls-6"><g id="g3659"><g id="g3665"><path id="path3667" class="cls-5" d="M137.24,156.66A12.67,12.67,0,1,0,149.87,144a12.7,12.7,0,0,0-12.64,12.7m-12.63.25A25.1,25.1,0,1,1,149.69,182a25.13,25.13,0,0,1-25.08-25.13m10.12-44.31a10,10,0,0,0-10,10.06v2.64h-14c-6.16,0-11.19,4.71-11.19,10.55v42c0,5.84,5,10.55,11.19,10.55H188.9c6.16,0,11.18-4.71,11.18-10.55v-42c0-5.84-5-10.55-11.18-10.55h-14v-2.64a10,10,0,0,0-10.06-10.06Z"/></g></g></g></g></g></svg>