<?xml version="1.0" encoding="utf-8"?>
<!-- Generator: Adobe Illustrator 21.0.2, SVG Export Plug-In . SVG Version: 6.00 Build 0)  -->
<svg version="1.1"
	 id="svg3355" inkscape:version="0.91 r13725" sodipodi:docname="sequence_off.svg" xmlns:cc="http://creativecommons.org/ns#" xmlns:dc="http://purl.org/dc/elements/1.1/" xmlns:inkscape="http://www.inkscape.org/namespaces/inkscape" xmlns:rdf="http://www.w3.org/1999/02/22-rdf-syntax-ns#" xmlns:sodipodi="http://sodipodi.sourceforge.net/DTD/sodipodi-0.dtd" xmlns:svg="http://www.w3.org/2000/svg"
	 xmlns="http://www.w3.org/2000/svg" xmlns:xlink="http://www.w3.org/1999/xlink" x="0px" y="0px" viewBox="0 0 36.1 36.1"
	 style="enable-background:new 0 0 36.1 36.1;" xml:space="preserve">
<style type="text/css">
	.st0{display:none;fill:#3E3E3E;}
	.st1{display:none;}
	.st2{clip-path:url(#SVGID_2_);}
	.st3{fill:#FFFFFF;}
</style>
<sodipodi:namedview  bordercolor="#666666" borderopacity="1" gridtolerance="10" guidetolerance="10" id="namedview3357" inkscape:current-layer="g3363" inkscape:cx="18.03525" inkscape:cy="18.035875" inkscape:pageopacity="0" inkscape:pageshadow="2" inkscape:window-height="480" inkscape:window-maximized="0" inkscape:window-width="774" inkscape:window-x="450" inkscape:window-y="128" inkscape:zoom="22.261187" objecttolerance="10" pagecolor="#ffffff" showgrid="false">
	</sodipodi:namedview>
<g id="g3363" transform="matrix(1.25,0,0,-1.25,0,36.07175)" inkscape:groupmode="layer" inkscape:label="boutons_iscore">
	<path id="path3365" inkscape:connector-curvature="0" class="st0" d="M0.5,0.5h27.9v27.9H0.5V0.5z"/>
	<path id="path3367" inkscape:connector-curvature="0" class="st1" d="M0,0h28.9v28.9H0V0z M1,27.9h26.9V1H1V27.9z"/>
	<g id="g3369">
		<g>
			<defs>
				<rect id="SVGID_1_" x="-3.6" y="-3.6" width="36.1" height="36.1"/>
			</defs>
			<clipPath id="SVGID_2_">
				<use xlink:href="#SVGID_1_"  style="overflow:visible;"/>
			</clipPath>
			<g id="g3371" class="st2">
				<g id="g3377" transform="translate(22.369,16.8516)">
					<path id="path3379" inkscape:connector-curvature="0" class="st3" d="M0,0c-1.1,0-2.1-0.8-2.3-1.8h-3.3C-5.9-0.8-6.8,0-7.9,0
						s-2.1-0.8-2.3-1.8h-3.3c-0.3,1-1.2,1.8-2.3,1.8c-1.3,0-2.4-1.1-2.4-2.4c0-1.3,1.1-2.4,2.4-2.4c1.1,0,2.1,0.8,2.3,1.8h3.3
						c0.3-1,1.2-1.8,2.3-1.8S-5.9-4.1-5.6-3h3.3c0.3-1,1.2-1.8,2.3-1.8c1.3,0,2.4,1.1,2.4,2.4C2.4-1.1,1.3,0,0,0"/>
				</g>
			</g>
		</g>
	</g>
</g>
</svg>
