<?xml version="1.0" encoding="UTF-8" standalone="no"?>
<!-- Created with Inkscape (http://www.inkscape.org/) -->

<svg
   xmlns:dc="http://purl.org/dc/elements/1.1/"
   xmlns:cc="http://creativecommons.org/ns#"
   xmlns:rdf="http://www.w3.org/1999/02/22-rdf-syntax-ns#"
   xmlns:svg="http://www.w3.org/2000/svg"
   xmlns="http://www.w3.org/2000/svg"
   xmlns:sodipodi="http://sodipodi.sourceforge.net/DTD/sodipodi-0.dtd"
   xmlns:inkscape="http://www.inkscape.org/namespaces/inkscape"
   id="svg3419"
   version="1.1"
   inkscape:version="0.91 r13725"
   xml:space="preserve"
   width="36.070499"
   height="36.071751"
   viewBox="0 0 36.070499 36.071751"
   sodipodi:docname="sequence_on.svg"><metadata
     id="metadata3425"><rdf:RDF><cc:Work
         rdf:about=""><dc:format>image/svg+xml</dc:format><dc:type
           rdf:resource="http://purl.org/dc/dcmitype/StillImage" /><dc:title></dc:title></cc:Work></rdf:RDF></metadata><defs
     id="defs3423"><clipPath
       clipPathUnits="userSpaceOnUse"
       id="clipPath3437"><path
         d="m 0,28.857 28.856,0 L 28.856,0 0,0 0,28.857 Z"
         id="path3439"
         inkscape:connector-curvature="0" /></clipPath></defs><sodipodi:namedview
     pagecolor="#ffffff"
     bordercolor="#666666"
     borderopacity="1"
     objecttolerance="10"
     gridtolerance="10"
     guidetolerance="10"
     inkscape:pageopacity="0"
     inkscape:pageshadow="2"
     inkscape:window-width="774"
     inkscape:window-height="480"
     id="namedview3421"
     showgrid="false"
     inkscape:zoom="6.5425158"
     inkscape:cx="18.03525"
     inkscape:cy="18.035875"
     inkscape:window-x="466"
     inkscape:window-y="186"
     inkscape:window-maximized="0"
     inkscape:current-layer="g3427" /><g
     id="g3427"
     inkscape:groupmode="layer"
     inkscape:label="boutons_iscore"
     transform="matrix(1.25,0,0,-1.25,0,36.07175)"><path
       d="m 0.5,0.499 27.856,0 0,27.858 -27.856,0 0,-27.858 z"
       style="fill:#f6a019;fill-opacity:1;fill-rule:nonzero;stroke:none"
       id="path3429"
       inkscape:connector-curvature="0" /><path
       d="m 0,0 28.857,0 0,28.858 L 0,28.858 0,0 Z m 1,27.858 26.857,0 L 27.857,1 1,1 1,27.858 Z"
       style="fill:#000000;fill-opacity:1;fill-rule:nonzero;stroke:none"
       id="path3431"
       inkscape:connector-curvature="0" /><g
       id="g3433"><g
         id="g3435"
         clip-path="url(#clipPath3437)"><g
           id="g3441"
           transform="translate(22.369,16.8512)"><path
             d="m 0,0 c -1.127,0 -2.066,-0.773 -2.337,-1.816 l -3.267,0 C -5.873,-0.773 -6.812,0 -7.94,0 c -1.128,0 -2.067,-0.773 -2.337,-1.816 l -3.268,0 C -13.814,-0.773 -14.754,0 -15.881,0 c -1.338,0 -2.422,-1.085 -2.422,-2.422 0,-1.338 1.084,-2.423 2.422,-2.423 1.127,0 2.067,0.774 2.336,1.817 l 3.268,0 c 0.27,-1.043 1.209,-1.817 2.337,-1.817 1.128,0 2.067,0.774 2.336,1.817 l 3.267,0 c 0.271,-1.043 1.21,-1.817 2.337,-1.817 1.338,0 2.422,1.085 2.422,2.423 C 2.422,-1.085 1.338,0 0,0"
             style="fill:#000000;fill-opacity:1;fill-rule:nonzero;stroke:none"
             id="path3443"
             inkscape:connector-curvature="0" /></g></g></g></g></svg>