<?xml version="1.0" encoding="utf-8"?>
<!-- Generator: Adobe Illustrator 21.0.2, SVG Export Plug-In . SVG Version: 6.00 Build 0)  -->
<svg version="1.1"
	 id="svg3643" inkscape:version="0.91 r13725" sodipodi:docname="snapshot_off.svg" xmlns:cc="http://creativecommons.org/ns#" xmlns:dc="http://purl.org/dc/elements/1.1/" xmlns:inkscape="http://www.inkscape.org/namespaces/inkscape" xmlns:rdf="http://www.w3.org/1999/02/22-rdf-syntax-ns#" xmlns:sodipodi="http://sodipodi.sourceforge.net/DTD/sodipodi-0.dtd" xmlns:svg="http://www.w3.org/2000/svg"
	 xmlns="http://www.w3.org/2000/svg" xmlns:xlink="http://www.w3.org/1999/xlink" x="0px" y="0px" viewBox="0 0 36.1 36.1"
	 style="enable-background:new 0 0 36.1 36.1;" xml:space="preserve">
<style type="text/css">
	.st0{fill:#808080;}
</style>
<sodipodi:namedview  bordercolor="#666666" borderopacity="1" gridtolerance="10" guidetolerance="10" id="namedview3645" inkscape:current-layer="g3651" inkscape:cx="-2.2933216" inkscape:cy="18.035875" inkscape:pageopacity="0" inkscape:pageshadow="2" inkscape:window-height="480" inkscape:window-maximized="0" inkscape:window-width="774" inkscape:window-x="460" inkscape:window-y="165" inkscape:zoom="6.5425158" objecttolerance="10" pagecolor="#ffffff" showgrid="false">
	</sodipodi:namedview>
<path id="path3667" inkscape:connector-curvature="0" class="st0" d="M15.2,19.3c0,1.5,1.2,2.8,2.6,2.8c1.5,0,2.6-1.2,2.6-2.8
	s-1.2-2.6-2.6-2.6S15.2,17.8,15.2,19.3 M12.6,19.3c0-3,2.4-5.4,5.2-5.4s5.2,2.4,5.2,5.4c0,2.9-2.4,5.2-5.2,5.2
	C15,24.7,12.6,22.3,12.6,19.3 M14.7,10.1c-1.1,0-2.1,1-2.1,2.1v0.5h-3c-1.2,0-2.4,1-2.4,2.2v8.9c0,1.2,1,2.2,2.4,2.2h16.5
	c1.2,0,2.4-1,2.4-2.2V15c0-1.2-1-2.2-2.4-2.2h-2.9v-0.5c0-1.1-1-2.1-2.1-2.1C21.1,10.1,14.7,10.1,14.7,10.1z"/>
</svg>
