<?xml version="1.0" encoding="UTF-8" standalone="no"?>
<!-- Created with Inkscape (http://www.inkscape.org/) -->

<svg
   xmlns:dc="http://purl.org/dc/elements/1.1/"
   xmlns:cc="http://creativecommons.org/ns#"
   xmlns:rdf="http://www.w3.org/1999/02/22-rdf-syntax-ns#"
   xmlns:svg="http://www.w3.org/2000/svg"
   xmlns="http://www.w3.org/2000/svg"
   xmlns:sodipodi="http://sodipodi.sourceforge.net/DTD/sodipodi-0.dtd"
   xmlns:inkscape="http://www.inkscape.org/namespaces/inkscape"
   id="svg3707"
   version="1.1"
   inkscape:version="0.91 r13725"
   xml:space="preserve"
   width="36.070499"
   height="36.071751"
   viewBox="0 0 36.070499 36.071751"
   sodipodi:docname="snapshot_on.svg"><metadata
     id="metadata3713"><rdf:RDF><cc:Work
         rdf:about=""><dc:format>image/svg+xml</dc:format><dc:type
           rdf:resource="http://purl.org/dc/dcmitype/StillImage" /><dc:title></dc:title></cc:Work></rdf:RDF></metadata><defs
     id="defs3711"><clipPath
       clipPathUnits="userSpaceOnUse"
       id="clipPath3725"><path
         d="m 0,28.857 28.856,0 L 28.856,0 0,0 0,28.857 Z"
         id="path3727"
         inkscape:connector-curvature="0" /></clipPath></defs><sodipodi:namedview
     pagecolor="#ffffff"
     bordercolor="#666666"
     borderopacity="1"
     objecttolerance="10"
     gridtolerance="10"
     guidetolerance="10"
     inkscape:pageopacity="0"
     inkscape:pageshadow="2"
     inkscape:window-width="774"
     inkscape:window-height="480"
     id="namedview3709"
     showgrid="false"
     inkscape:zoom="6.5425158"
     inkscape:cx="18.03525"
     inkscape:cy="18.035875"
     inkscape:window-x="0"
     inkscape:window-y="0"
     inkscape:window-maximized="0"
     inkscape:current-layer="g3715" /><g
     id="g3715"
     inkscape:groupmode="layer"
     inkscape:label="boutons_iscore"
     transform="matrix(1.25,0,0,-1.25,0,36.07175)"><path
       d="m 0.5,0.5 27.857,0 0,27.857 -27.857,0 0,-27.857 z"
       style="fill:#f6a019;fill-opacity:1;fill-rule:nonzero;stroke:none"
       id="path3717"
       inkscape:connector-curvature="0" /><path
       d="m 0,0 28.857,0 0,28.858 L 0,28.858 0,0 Z m 1,27.858 26.857,0 L 27.857,1 1,1 1,27.858 Z"
       style="fill:#000000;fill-opacity:1;fill-rule:nonzero;stroke:none"
       id="path3719"
       inkscape:connector-curvature="0" /><g
       id="g3721"><g
         id="g3723"
         clip-path="url(#clipPath3725)"><g
           id="g3729"
           transform="translate(12.1908,13.3887)"><path
             d="M 0,0 C 0,-1.187 0.955,-2.152 2.133,-2.152 3.31,-2.152 4.275,-1.187 4.275,0 4.275,1.178 3.31,2.143 2.133,2.143 0.955,2.143 0,1.178 0,0 m -2.131,-0.042 c 0,2.355 1.899,4.253 4.232,4.253 2.343,0 4.241,-1.898 4.241,-4.253 0,-2.343 -1.898,-4.241 -4.241,-4.241 -2.333,0 -4.232,1.898 -4.232,4.241 m 1.707,7.478 c -0.932,0 -1.685,-0.754 -1.685,-1.698 l 0,-0.446 -2.355,0 c -1.039,0 -1.888,-0.795 -1.888,-1.78 l 0,-7.085 c 0,-0.986 0.849,-1.781 1.888,-1.781 l 13.182,0 c 1.039,0 1.887,0.795 1.887,1.781 l 0,7.085 c 0,0.985 -0.848,1.78 -1.887,1.78 l -2.365,0 0,0.446 c 0,0.944 -0.753,1.698 -1.697,1.698 l -5.08,0 z"
             style="fill:#000000;fill-opacity:1;fill-rule:nonzero;stroke:none"
             id="path3731"
             inkscape:connector-curvature="0" /></g></g></g></g></svg>