<?xml version="1.0" encoding="utf-8"?>
<!-- Generator: Adobe Illustrator 21.0.2, SVG Export Plug-In . SVG Version: 6.00 Build 0)  -->
<svg version="1.1" id="Calque_1" xmlns="http://www.w3.org/2000/svg" xmlns:xlink="http://www.w3.org/1999/xlink" x="0px" y="0px"
	 viewBox="0 0 14 14" style="enable-background:new 0 0 14 14;" xml:space="preserve">
<style type="text/css">
	.st0{fill:#F6A019;}
</style>
<title>boutons</title>
<circle class="st0" cx="7" cy="7" r="7"/>
<path d="M6,2.5L6,2.5c-0.7,0-1.2,0.6-1.2,1.2c0,0,0,0,0,0v0.4h1.1V3.7h4.5v4.4H9.8v1.1h0.4c0.7,0,1.2-0.5,1.3-1.2V3.8l0,0
	c0-0.7-0.5-1.3-1.2-1.3c0,0-0.1,0-0.1,0H6z M3.7,4.8L3.7,4.8C3,4.8,2.5,5.3,2.5,6c0,0,0,0,0,0v4.3l0,0c0,0.7,0.6,1.2,1.2,1.2H8
	c0.7,0,1.2-0.5,1.3-1.2V6l0,0c0-0.7-0.5-1.2-1.2-1.3c0,0-0.1,0-0.1,0H3.7z M8.1,10.4H3.6V5.9h4.5V10.4z"/>
</svg>
