<?xml version="1.0" encoding="utf-8"?>
<!-- Generator: Adobe Illustrator 21.0.2, SVG Export Plug-In . SVG Version: 6.00 Build 0)  -->
<svg version="1.1" id="Calque_1" xmlns="http://www.w3.org/2000/svg" xmlns:xlink="http://www.w3.org/1999/xlink" x="0px" y="0px"
	 viewBox="0 0 14 14" style="enable-background:new 0 0 14 14;" xml:space="preserve">
<style type="text/css">
	.st0{display:none;fill:#F6A019;}
	.st1{fill:#03C3DD;}
</style>
<title>boutons</title>
<circle class="st0" cx="7" cy="7" r="7"/>
<path class="st1" d="M5.8,2L5.8,2C5.1,2,4.5,2.6,4.5,3.4c0,0,0,0,0,0.1v0.5h1.2V3.3h5v4.9h-0.6v1.2h0.5c0.7,0,1.4-0.6,1.4-1.3V3.4
	l0,0C12,2.7,11.5,2,10.7,2c0,0-0.1,0-0.1,0H5.8z M3.4,4.5L3.4,4.5C2.6,4.5,2,5.1,2,5.9c0,0,0,0,0,0v4.8l0,0C2,11.4,2.6,12,3.4,12
	h4.7c0.7,0,1.4-0.6,1.4-1.3V5.9l0,0c0-0.8-0.6-1.4-1.3-1.4c0,0-0.1,0-0.1,0H3.4z M8.2,10.7h-5v-5h5V10.7z"/>
</svg>
