<?xml version="1.0" encoding="UTF-8" standalone="no"?>
<!-- Generator: Adobe Illustrator 21.0.2, SVG Export Plug-In . SVG Version: 6.00 Build 0)  -->

<svg
   xmlns:dc="http://purl.org/dc/elements/1.1/"
   xmlns:cc="http://creativecommons.org/ns#"
   xmlns:rdf="http://www.w3.org/1999/02/22-rdf-syntax-ns#"
   xmlns:svg="http://www.w3.org/2000/svg"
   xmlns="http://www.w3.org/2000/svg"
   xmlns:sodipodi="http://sodipodi.sourceforge.net/DTD/sodipodi-0.dtd"
   xmlns:inkscape="http://www.inkscape.org/namespaces/inkscape"
   version="1.1"
   id="Calque_1"
   x="0px"
   y="0px"
   viewBox="0 0 64.000001 64.000001"
   xml:space="preserve"
   sodipodi:docname="recent_files.svg"
   width="64"
   height="64"
   inkscape:version="0.92.5 (2060ec1f9f, 2020-04-08)"
   inkscape:export-filename="/home/alevy/dev/score/src/lib/resources/icons/new_file_off.png"
   inkscape:export-xdpi="48"
   inkscape:export-ydpi="48"><metadata
   id="metadata17"><rdf:RDF><cc:Work
       rdf:about=""><dc:format>image/svg+xml</dc:format><dc:type
         rdf:resource="http://purl.org/dc/dcmitype/StillImage" /><dc:title>boutons</dc:title></cc:Work></rdf:RDF></metadata><defs
   id="defs15" /><sodipodi:namedview
   pagecolor="#ffffff"
   bordercolor="#666666"
   borderopacity="1"
   objecttolerance="10"
   gridtolerance="10"
   guidetolerance="10"
   inkscape:pageopacity="0"
   inkscape:pageshadow="2"
   inkscape:window-width="1920"
   inkscape:window-height="1015"
   id="namedview13"
   showgrid="false"
   inkscape:zoom="7.0316242"
   inkscape:cx="44.827359"
   inkscape:cy="12.146794"
   inkscape:window-x="0"
   inkscape:window-y="0"
   inkscape:window-maximized="1"
   inkscape:current-layer="layer1" />
<style
   type="text/css"
   id="style2">
	.st0{display:none;fill:#3D3D3D;}
	.st1{display:none;fill:#000100;}
	.st2{fill:#808080;}
</style>
<title
   id="title4">boutons</title>
<rect
   x="0.5"
   y="35.599998"
   class="st0"
   width="27.9"
   height="27.9"
   id="rect6"
   style="display:none;fill:#3d3d3d" />
<path
   class="st1"
   d="M 28.9,64 H 0 V 35.1 H 28.9 Z M 1,63 H 27.9 V 36.1 H 1 Z"
   id="path8"
   inkscape:connector-curvature="0"
   style="display:none;fill:#000100" />

<g
   inkscape:groupmode="layer"
   id="layer1"
   inkscape:label="Icon"
   style="display:inline"
   transform="translate(0,35.1)"><path
     style="opacity:1;vector-effect:none;fill:none;fill-opacity:1;fill-rule:nonzero;stroke:#f0f0f0;stroke-width:4;stroke-linecap:round;stroke-linejoin:round;stroke-miterlimit:10;stroke-dasharray:none;stroke-dashoffset:0;stroke-opacity:1;paint-order:normal"
     d="m 40.807674,-30.502174 15.179,14.679 M 15.629146,14.094479 c 0.0026,-1.22378 0,-41.834826 0,-41.834826 0,-1.529791 1.128358,-2.761337 2.529762,-2.761355 l 22.648766,-4.72e-4 v 14.679 h 15.179 v 29.917653 c 0,1.529791 -1.128679,2.760874 -2.530083,2.760874 0,0 -34.112421,-0.0065 -35.297683,0 -1.185262,0.0065 -2.532377,-1.537094 -2.529762,-2.760874 z"
     id="rect12"
     inkscape:connector-curvature="0"
     sodipodi:nodetypes="cczscccccszz" /><path
     sodipodi:nodetypes="ccszzscc"
     inkscape:connector-curvature="0"
     id="path18"
     d="m 48.350327,18.602304 v 2.958826 c 0,1.529791 -1.128679,2.760874 -2.530083,2.760874 0,0 -34.11242,-0.0065 -35.297683,0 -1.1852615,0.0065 -2.5323765,-1.537094 -2.5297615,-2.760874 0.0026,-1.22378 0,-41.834826 0,-41.834826 0,-1.529791 1.128358,-2.761337 2.5297615,-2.761355 l 3.324383,-2.36e-4"
     style="opacity:1;vector-effect:none;fill:none;fill-opacity:1;fill-rule:nonzero;stroke:#f0f0f0;stroke-width:4;stroke-linecap:round;stroke-linejoin:round;stroke-miterlimit:10;stroke-dasharray:none;stroke-dashoffset:0;stroke-opacity:1;paint-order:normal" /></g></svg>