<?xml version="1.0" encoding="UTF-8" standalone="no"?>
<svg
   width="25"
   height="20"
   viewBox="0 0 6.6145831 5.2916668"
   version="1.1"
   id="svg8"
   inkscape:version="1.0 (4035a4fb49, 2020-05-01)"
   sodipodi:docname="wave_noise3_off.svg"
   inkscape:export-filename="/home/alevy/graphisme/icons_score/waves/saw_on.png"
   inkscape:export-xdpi="31.23"
   inkscape:export-ydpi="31.23"
   xmlns:inkscape="http://www.inkscape.org/namespaces/inkscape"
   xmlns:sodipodi="http://sodipodi.sourceforge.net/DTD/sodipodi-0.dtd"
   xmlns="http://www.w3.org/2000/svg"
   xmlns:svg="http://www.w3.org/2000/svg"
   xmlns:rdf="http://www.w3.org/1999/02/22-rdf-syntax-ns#"
   xmlns:cc="http://creativecommons.org/ns#"
   xmlns:dc="http://purl.org/dc/elements/1.1/">
  <defs
     id="defs2">
    <inkscape:path-effect
       effect="bspline"
       id="path-effect3719"
       is_visible="true"
       weight="33.333333"
       steps="2"
       helper_size="0"
       apply_no_weight="true"
       apply_with_weight="true"
       only_selected="false"
       lpeversion="0" />
    <inkscape:path-effect
       effect="bspline"
       id="path-effect3719-9"
       is_visible="true"
       weight="33.333333"
       steps="2"
       helper_size="0"
       apply_no_weight="true"
       apply_with_weight="true"
       only_selected="false"
       lpeversion="0" />
  </defs>
  <sodipodi:namedview
     inkscape:snap-global="true"
     id="base"
     pagecolor="#ffffff"
     bordercolor="#666666"
     borderopacity="1.0"
     inkscape:pageopacity="0.0"
     inkscape:pageshadow="2"
     inkscape:zoom="30.237778"
     inkscape:cx="11.296963"
     inkscape:cy="10.532414"
     inkscape:document-units="px"
     inkscape:current-layer="g844"
     showgrid="true"
     units="px"
     inkscape:window-width="1920"
     inkscape:window-height="1015"
     inkscape:window-x="0"
     inkscape:window-y="0"
     inkscape:window-maximized="1"
     inkscape:document-rotation="0"
     inkscape:snap-bbox="true"
     inkscape:showpageshadow="2"
     inkscape:pagecheckerboard="0"
     inkscape:deskcolor="#d1d1d1">
    <inkscape:grid
       type="xygrid"
       id="grid875"
       originx="0"
       originy="0"
       spacingy="1"
       spacingx="1"
       units="px" />
  </sodipodi:namedview>
  <metadata
     id="metadata5">
    <rdf:RDF>
      <cc:Work
         rdf:about="">
        <dc:format>image/svg+xml</dc:format>
        <dc:type
           rdf:resource="http://purl.org/dc/dcmitype/StillImage" />
        <dc:title />
      </cc:Work>
    </rdf:RDF>
  </metadata>
  <g
     style="display:inline"
     transform="translate(-79.934816,-73.123725)"
     id="g844"
     inkscape:groupmode="layer"
     inkscape:label="sin_on">
    <path
       sodipodi:nodetypes="cccccc"
       id="path26"
       d="m 80.599909,75.938422 1.058333,-1.5875 1.058334,2.910417 1.058333,-1.322917 0.79375,1.058334 1.322917,-1.852084"
       style="fill:none;stroke:#666666;stroke-width:0.52916666;stroke-linecap:butt;stroke-linejoin:miter;stroke-miterlimit:4;stroke-dasharray:none;stroke-opacity:1" />
    <path
       style="font-weight:bold;font-size:2.11667px;line-height:0.433917px;font-family:Ubuntu;-inkscape-font-specification:'Ubuntu Bold';letter-spacing:0px;word-spacing:0px;fill:#666666;stroke-width:0.264583"
       d="m 85.24723,73.758159 q 0,0.156633 -0.09525,0.249767 -0.09313,0.09313 -0.230717,0.127 v 0.0064 q 0.182034,0.02117 0.275168,0.110067 0.09525,0.0889 0.09525,0.239183 0,0.131234 -0.06562,0.237067 -0.0635,0.103717 -0.198967,0.165101 -0.13335,0.05927 -0.345017,0.05927 -0.245534,0 -0.436034,-0.08255 v -0.270933 q 0.09737,0.04868 0.2032,0.07408 0.10795,0.0254 0.198967,0.0254 0.17145,0 0.239184,-0.05927 0.06985,-0.05927 0.06985,-0.167217 0,-0.0635 -0.03175,-0.105833 -0.03175,-0.04445 -0.112184,-0.06562 -0.07832,-0.02328 -0.220133,-0.02328 h -0.114301 v -0.245534 h 0.116417 q 0.1397,0 0.211667,-0.0254 0.07408,-0.02752 0.09948,-0.07197 0.02752,-0.04657 0.02752,-0.105833 0,-0.08043 -0.0508,-0.124884 -0.04868,-0.04657 -0.1651,-0.04657 -0.10795,0 -0.188384,0.0381 -0.07832,0.03598 -0.13335,0.07197 l -0.148167,-0.220133 q 0.0889,-0.0635 0.207434,-0.105834 0.12065,-0.04233 0.28575,-0.04233 0.232834,0 0.368301,0.09525 0.137584,0.09313 0.137584,0.264584 z"
       id="text870"
       aria-label="3" />
  </g>
</svg>
