<svg id="Calque_1" data-name="Calque 1" xmlns="http://www.w3.org/2000/svg" viewBox="0 0 24 24"><defs><style>.cls-1{fill:#f6a019;}.cls-2{fill:#000100;}</style></defs><title>boutons</title><rect class="cls-1" x="0.5" y="0.5" width="23" height="23"/><path class="cls-2" d="M24,24H0V0H24V24ZM1,23H23V1H1V23Z"/><path class="cls-2" d="M9.67,6.86h1V6h2.79V6.87h0.94A2.14,2.14,0,0,0,12,5h0A2.14,2.14,0,0,0,9.67,6.86m-0.8,1h-2V9.67h1V18a1,1,0,0,0,1,1h6.31a1,1,0,0,0,1-1h0V9.67h0.92V7.81H8.87Zm5.48,2.8h0.93v5.6H14.35v-5.6Zm-1.87,0h0.93v5.6H12.49v-5.6Zm-1.87,0h0.93v5.6H10.62v-5.6Zm-1.87,0H9.69v5.6H8.75v-5.6Z"/></svg>