<svg id="Calque_1" data-name="Calque 1" xmlns="http://www.w3.org/2000/svg" viewBox="0 0 28.86 28.86"><defs><style>.cls-1{fill:#3d3d3d;}.cls-2{fill:#000100;}.cls-3{fill:#fff;}</style></defs><title>boutons</title><rect class="cls-1" x="0.5" y="0.5" width="27.86" height="27.86"/><path class="cls-2" d="M28.86,28.86H0V0H28.86V28.86ZM1,27.86H27.86V1H1V27.86Z"/><polygon class="cls-3" points="11.52 9.2 13.59 9.2 13.59 13.47 9.36 13.47 9.36 11.37 6.19 14.54 9.36 17.7 9.36 15.55 13.59 15.55 13.59 19.81 11.47 19.81 14.65 23 17.84 19.81 15.7 19.81 15.7 15.55 19.93 15.55 19.93 17.72 23.12 14.54 19.93 11.36 19.93 13.47 15.7 13.47 15.7 9.2 17.79 9.2 14.65 6.07 11.52 9.2"/></svg>