<svg id="Calque_1" data-name="Calque 1" xmlns="http://www.w3.org/2000/svg" viewBox="0 0 28.86 28.86"><defs><style>.cls-1{fill:#3d3d3d;}.cls-2{fill:#000100;}.cls-3{fill:#fff;}</style></defs><title>boutons</title><rect class="cls-1" x="0.5" y="0.5" width="27.86" height="27.86"/><path class="cls-2" d="M28.86,28.86H0V0H28.86V28.86ZM1,27.86H27.86V1H1V27.86Z"/><path class="cls-3" d="M8.08,18.68H20.78V10.22H8.08v8.46Zm0-8.46,1.06,1.06H19.72v6.32H9.14V11.28Z"/><polygon class="cls-3" points="19.72 8.1 19.72 9.16 21.83 9.16 21.83 11.24 22.89 11.24 22.89 8.1 19.72 8.1"/><polygon class="cls-3" points="5.97 8.1 5.97 11.24 7.03 11.24 7.03 9.16 9.14 9.16 9.14 8.1 5.97 8.1"/><polygon class="cls-3" points="21.83 17.62 21.83 19.71 19.72 19.71 19.72 20.75 22.89 20.75 22.89 17.62 21.83 17.62"/><polygon class="cls-3" points="5.97 17.62 5.97 20.75 9.14 20.75 9.14 19.71 7.03 19.71 7.03 17.62 5.97 17.62"/></svg>